<?xml version="1.0" encoding="UTF-8" standalone="no"?>
<svg
   xmlns:dc="http://purl.org/dc/elements/1.1/"
   xmlns:cc="http://creativecommons.org/ns#"
   xmlns:rdf="http://www.w3.org/1999/02/22-rdf-syntax-ns#"
   xmlns:svg="http://www.w3.org/2000/svg"
   xmlns="http://www.w3.org/2000/svg"
   xmlns:sodipodi="http://sodipodi.sourceforge.net/DTD/sodipodi-0.dtd"
   xmlns:inkscape="http://www.inkscape.org/namespaces/inkscape"
   sodipodi:docname="batl.svg"
   inkscape:version="1.0 (4035a4fb49, 2020-05-01)"
   id="svg8"
   version="1.1"
   viewBox="0 0 210 297"
   height="297mm"
   width="210mm">
  <defs
     id="defs2" />
  <sodipodi:namedview
     inkscape:window-maximized="1"
     inkscape:window-y="-8"
     inkscape:window-x="1912"
     inkscape:window-height="1027"
     inkscape:window-width="1920"
     showgrid="false"
     inkscape:document-rotation="0"
     inkscape:current-layer="layer1"
     inkscape:document-units="mm"
     inkscape:cy="471.83941"
     inkscape:cx="442.51103"
     inkscape:zoom="0.7"
     inkscape:pageshadow="2"
     inkscape:pageopacity="0.0"
     borderopacity="1.0"
     bordercolor="#666666"
     pagecolor="#ffffff"
     id="base" />
  <metadata
     id="metadata5">
    <rdf:RDF>
      <cc:Work
         rdf:about="">
        <dc:format>image/svg+xml</dc:format>
        <dc:type
           rdf:resource="http://purl.org/dc/dcmitype/StillImage" />
        <dc:title></dc:title>
      </cc:Work>
    </rdf:RDF>
  </metadata>
  <g
     id="layer1"
     inkscape:groupmode="layer"
     inkscape:label="Layer 1">
    <text
       transform="scale(0.91982569,1.0871625)"
       id="text14"
       y="120.98993"
       x="25.135624"
       style="font-style:normal;font-weight:normal;font-size:72.9626px;line-height:1.25;font-family:sans-serif;letter-spacing:0px;fill:#000000;fill-opacity:1;stroke:none;stroke-width:0.760026"
       xml:space="preserve"><tspan
         style="font-size:72.9626px;stroke-width:0.760026"
         y="120.98993"
         x="25.135624"
         id="tspan12"
         sodipodi:role="line">BATL</tspan></text>
    <path
       id="path18"
       d="M 60.854166,63.499999 C 57.346095,63.267833 54.979411,61.033479 52.160714,59.34226 49.065484,57.485123 45.5994,55.838687 42.711309,53.672618 36.68395,49.1521 43.44558,53.161424 40.443451,52.160714 39.936343,51.991677 39.737154,51.34751 39.309524,51.026784 37.348628,49.556114 35.736302,47.831541 34.017857,46.113094 33.572407,45.667646 32.915926,45.457467 32.505951,44.979166 32.139263,44.551361 32.088071,43.918026 31.75,43.46726 30.180383,41.37444 24.244774,36.825528 21.544642,38.175594 c -0.770516,0.385259 -0.506063,0.506063 -1.133928,1.13393 -0.247794,0.247793 -0.944562,0.566586 -1.133928,0.755951 -2.957489,2.957489 -2.343353,7.256793 -3.401786,10.961309 -0.186395,0.652383 -0.569558,1.237499 -0.755953,1.889882 -0.13845,0.484576 0.159369,1.033799 0,1.511906 -0.620863,1.862587 -2.02446,3.626083 -3.023809,5.291666 -0.824831,1.374717 -1.58199,3.163981 -2.2678572,4.535713 -0.7865232,1.573048 0.026093,-0.404069 -0.7559524,0.377976 -0.08909,0.08909 0.08909,0.288888 0,0.377978 -0.08909,0.08909 -0.2888864,-0.08909 -0.3779761,0 -0.08909,0.08909 0.056345,0.265285 0,0.377976 -0.3132233,0.626446 -1.0835269,0.705551 -1.5119048,1.133927 -0.6939799,0.693981 -1.5748095,1.70062 -1.8898809,2.645834 -0.1593689,0.478107 0.082852,1.014793 0,1.511905 -0.342615,2.055691 -0.3779761,3.938122 -0.3779761,6.047619 0,2.39255 0.2899042,4.825619 1.8898809,6.425594 0.1781797,0.178181 0.5168993,-0.07968 0.7559524,0 1.1342704,0.378092 1.3197975,0.755062 2.6458332,1.13393 5.929856,1.694243 9.767237,-2.963667 13.607143,-6.803573 2.196379,-2.196377 5.969166,-4.908925 7.559524,-7.559524 0.798179,-1.330301 0.900104,-2.375969 2.267857,-3.401785 2.817733,-2.113301 4.468231,2.81795 6.80357,3.401785 0.355407,0.183346 0.767239,-0.09167 1.13393,0 2.689209,0.672304 7.976439,2.789238 10.583333,2.267858 1.719858,-0.343972 3.267104,-1.34102 4.913691,-1.889879 0.675503,-0.225169 2.411336,-0.951897 2.645833,-1.889882 0.09167,-0.366691 -0.07413,-0.763294 0,-1.13393 0.257969,-1.289852 0.814899,-2.503638 1.133928,-3.779761 z"
       style="fill:#000000;stroke:#000000;stroke-width:0.264583px;stroke-linecap:butt;stroke-linejoin:miter;stroke-opacity:1" />
    <path
       id="path20"
       d="m 134.18155,142.875 c 1.2192,1.54187 2.86708,2.6827 4.15773,4.15774 3.34528,3.82317 6.85614,7.51159 10.20536,11.33928 1.02187,1.16786 2.34215,1.96417 3.40179,3.02381 3.39499,3.395 -1.48044,-0.72842 1.5119,1.88988 5.02956,4.40087 10.27402,8.58171 14.74107,13.60715 3.46364,3.89658 5.73451,8.75831 9.44941,12.47321 1.2436,1.2436 3.30486,1.73158 4.91369,2.26786 0.84079,0.28026 2.74622,-0.17096 3.40178,-0.37798 2.8601,-0.90319 5.88119,-1.95404 8.31548,-3.77976 3.41204,-2.55904 7.71827,-8.2777 6.80357,-12.85119 -0.68616,-3.43083 -2.37962,-3.89153 -4.91369,-6.4256 -1.07278,-1.07278 -1.99864,-2.28341 -3.02381,-3.40178 -6.45364,-7.04034 -14.15844,-12.74886 -22.67857,-17.00893 -3.20841,-1.60421 -6.10205,-3.95273 -9.4494,-5.29167 -0.97426,-0.3897 -4.52947,-1.1308 -5.29167,-1.5119 -0.31874,-0.15937 -0.45038,-0.57261 -0.75595,-0.75596 -0.68329,-0.40997 -1.55514,-0.39959 -2.26786,-0.75595 -1.78432,-0.89216 -3.26492,-2.5774 -4.91369,-3.40178 -0.57336,-0.28668 -2.51149,-0.12808 -3.02381,0 -0.91491,0.22872 -0.75885,0.56914 -1.51191,1.13393 -0.77539,0.58154 -2.33148,0.78776 -3.02381,1.13392 -0.54246,0.27124 -1.95276,1.46976 -2.26785,1.88988 -1.02813,1.37085 0.53617,1.46602 -2.26786,3.02381 -0.4541,0.25229 -1.00794,-0.25198 -1.5119,-0.37797 z"
       style="fill:#000000;stroke:#000000;stroke-width:0.264583px;stroke-linecap:butt;stroke-linejoin:miter;stroke-opacity:1" />
    <path
       id="path22"
       d="m 145.89881,67.657738 c 1.25992,-0.251986 2.55337,-0.372708 3.77976,-0.755954 1.79827,-0.561956 2.94296,-1.716728 4.53571,-2.645833 4.64261,-2.708188 9.25296,-5.500386 13.60715,-8.693452 1.68719,-1.237276 2.91126,-2.894271 4.53571,-4.157739 2.80907,-2.184826 6.19246,-4.302575 8.69345,-6.80357 2.41974,-2.419736 4.67992,-6.587712 7.55953,-8.315475 0.68329,-0.409975 1.528,-0.460013 2.26785,-0.755955 1.15087,-0.460348 1.0048,-0.805719 2.64584,-1.133927 0.61772,-0.123545 1.26377,0.06957 1.88988,0 0.78219,-0.08691 2.87804,-0.828839 3.77976,-0.377976 2.2744,1.137198 4.21842,9.680443 5.29167,12.095237 0.55043,1.23848 1.33944,2.163307 1.88988,3.401787 0.21098,0.474705 0.16699,1.037198 0.37797,1.511903 1.83369,4.125788 4.11709,8.203695 5.66965,12.473215 0.44952,1.2362 0.54566,2.603236 1.13393,3.779761 0.20315,0.406313 0.61229,0.702971 0.75595,1.13393 0.61582,1.847458 0.0805,7.366413 -1.51191,8.693452 -1.2456,1.038 -3.10628,0.597127 -4.53571,0.755951 -3.36712,0.374126 -6.92894,0.932596 -10.20536,-0.377976 -0.33087,-0.132347 -0.4284,-0.615574 -0.75595,-0.755951 -0.59049,-0.253069 -1.27216,-0.201486 -1.88988,-0.377976 -1.06853,-0.305295 -3.86965,-1.949805 -4.91369,-2.645833 -2.28813,-1.525421 -4.32384,-3.673827 -6.80357,-4.913691 -1.18813,-0.594061 -12.40912,0.377976 -13.22917,0.377976 -0.16855,0 -5.58144,-0.0882 -5.66964,0 -0.19453,0.194529 -0.52715,1.237342 -0.75596,1.511905 -2.13889,2.566673 -1.02407,0.536239 -1.88988,2.267858"
       style="fill:#000000;stroke:#000000;stroke-width:0.264583px;stroke-linecap:butt;stroke-linejoin:miter;stroke-opacity:1" />
    <path
       id="path24"
       d="m 55.562499,140.22916 c -10.40204,1.77006 -20.534751,5.74717 -29.482142,11.33929 -4.6294,2.89337 -10.852755,7.32934 -14.363095,11.71726 -1.7951641,2.24396 -2.8154535,5.06671 -4.1577382,7.55953 -1.7312915,3.21525 0.3640429,-1.11303 -1.8898811,2.26785 -0.2210046,0.33151 -0.1997964,0.77757 -0.3779761,1.13393 -0.8337537,1.66751 -2.1919422,3.09813 -2.6458333,4.91369 -0.1527878,0.61115 0.08909,1.26625 0,1.88988 -0.06974,0.48818 -0.737448,5.31017 -0.3779762,5.66965 0.9718089,0.9718 6.1477134,0.58474 7.1815476,0.37797 1.0555723,-0.21111 2.0375873,-0.70246 3.0238093,-1.13393 9.469896,-4.14308 16.913511,-11.29157 26.080358,-15.875 1.899968,-0.94998 3.652991,-1.00774 5.669642,-1.5119 4.257718,-1.06443 9.476026,-1.52788 13.229167,-3.77976 4.689618,-2.81377 9.656336,-6.24768 11.339285,-11.71726 0.148209,-0.48169 0,-1.00794 0,-1.51191 0,-4.50256 -2.701584,-6.93988 -6.047618,-9.4494 -1.927845,-1.44589 -1.553023,-3.02381 -4.535715,-3.02381"
       style="fill:#000000;stroke:#000000;stroke-width:0.264583px;stroke-linecap:butt;stroke-linejoin:miter;stroke-opacity:1" />
  </g>
</svg>
