<?xml version="1.0" encoding="UTF-8" standalone="no"?>
<svg
   xmlns:dc="http://purl.org/dc/elements/1.1/"
   xmlns:cc="http://creativecommons.org/ns#"
   xmlns:rdf="http://www.w3.org/1999/02/22-rdf-syntax-ns#"
   xmlns:svg="http://www.w3.org/2000/svg"
   xmlns="http://www.w3.org/2000/svg"
   xmlns:sodipodi="http://sodipodi.sourceforge.net/DTD/sodipodi-0.dtd"
   xmlns:inkscape="http://www.inkscape.org/namespaces/inkscape"
   sodipodi:docname="choppers.svg"
   inkscape:version="1.0 (4035a4fb49, 2020-05-01)"
   id="svg8"
   version="1.1"
   viewBox="0 0 210 297"
   height="297mm"
   width="210mm">
  <defs
     id="defs2" />
  <sodipodi:namedview
     inkscape:window-maximized="1"
     inkscape:window-y="-8"
     inkscape:window-x="1912"
     inkscape:window-height="1027"
     inkscape:window-width="1920"
     showgrid="false"
     inkscape:document-rotation="0"
     inkscape:current-layer="layer1"
     inkscape:document-units="mm"
     inkscape:cy="560"
     inkscape:cx="400"
     inkscape:zoom="0.35"
     inkscape:pageshadow="2"
     inkscape:pageopacity="0.0"
     borderopacity="1.0"
     bordercolor="#666666"
     pagecolor="#ffffff"
     id="base" />
  <metadata
     id="metadata5">
    <rdf:RDF>
      <cc:Work
         rdf:about="">
        <dc:format>image/svg+xml</dc:format>
        <dc:type
           rdf:resource="http://purl.org/dc/dcmitype/StillImage" />
        <dc:title></dc:title>
      </cc:Work>
    </rdf:RDF>
  </metadata>
  <g
     id="layer1"
     inkscape:groupmode="layer"
     inkscape:label="Layer 1">
    <path
       id="path10"
       d="m 69.547617,93.738093 c -4.032813,0.336095 -3.447203,3.447206 -5.291666,5.291667 -1.060445,1.06044 -2.489692,1.64329 -3.023809,3.77976 -0.12223,0.48892 0.279551,1.09258 0,1.51191 -0.312547,0.46882 -1.25992,0.25198 -1.511904,0.75595 -0.574614,1.14922 -0.402971,2.54433 -0.755954,3.77976 -0.662096,2.31734 -2.44085,4.47174 -3.023809,6.80357 -0.244459,0.97785 0.318738,2.0676 0,3.02381 -1.17425,3.52275 -1.173731,8.57404 0,12.09524 0.239054,0.71716 -0.338071,1.59171 0,2.26786 0.752594,1.50518 0.759312,0.007 1.511906,1.5119 0.22538,0.45077 -0.225383,1.06114 0,1.51191 1.259306,2.51861 2.423967,3.33603 3.779761,6.04762 0.506246,1.01248 1.803421,1.04747 2.267857,1.5119 0.07559,0.0756 0.07559,2.19226 0,2.26786 -0.356359,0.35636 -1.155546,-0.35636 -1.511906,0 -0.464433,0.46443 -0.499414,1.76161 -1.511903,2.26785 -3.489275,1.74464 -7.038059,4.77021 -9.827381,7.55953 -0.989606,0.9896 -3.367797,7.14756 -4.535715,8.31547 -0.970561,0.97057 -5.014415,-4.87579 -5.291667,-5.29166 -4.361201,-6.5418 -9.827379,-14.85465 -9.827379,-22.67857 0,-7.23468 0.338071,1.69036 -0.755954,-3.77977 -0.760598,-3.80299 -0.627526,-16.83089 0,-19.65476 0.51858,-2.3336 1.929786,-4.43706 2.267857,-6.80357 0.142544,-0.99781 -0.165703,-2.02958 0,-3.02381 0.425956,-2.55572 3.203655,-7.073333 4.535715,-9.071427 0.593019,-0.889527 1.78975,-1.311643 2.267858,-2.267855 2.519346,-5.038696 5.661575,-9.446718 11.339285,-11.339287 2.308979,-0.76966 3.27521,3.275211 4.535714,4.535715 6.827258,6.827258 0.152916,0.07646 3.02381,1.511905 1.1578,0.578898 0.591166,1.347119 1.511905,2.267855 0.493411,0.493414 2.338076,1.169041 3.02381,1.511906 2.31912,1.15956 1.16646,1.922415 2.267857,3.023809 0.356359,0.35636 1.155544,-0.356359 1.511903,0 0.178181,0.178181 -0.251984,0.755952 0,0.755952 0.251984,0 0,-0.503968 0,-0.755952 1.007938,0.251984 2.015874,0.503968 3.023809,0.755952 z"
       style="fill:#000000;stroke:#000000;stroke-width:0.264583px;stroke-linecap:butt;stroke-linejoin:miter;stroke-opacity:1" />
    <path
       id="path14"
       d="m 90.714284,102.05357 c 0.704905,1.72872 -4.04667,3.82454 -4.535713,5.29167 -0.159369,0.4781 0.159367,1.0338 0,1.5119 -0.786524,2.35957 -0.50397,-0.25198 -1.511905,0.75595 -0.2119,0.2119 -1.373958,2.60997 -1.511906,3.02381 -0.159367,0.47811 0.225382,1.06115 0,1.51191 -0.112689,0.22538 -0.577771,-0.17818 -0.755952,0 -0.345278,0.34528 -0.20683,2.68152 -0.755952,3.77976 -0.5056,1.0112 0.757569,3.77815 0,4.53571 -0.178181,0.17818 -0.643262,-0.22538 -0.755951,0 -0.878665,1.75733 0.821282,5.42233 1.511903,6.80358 0.678564,1.35712 1.544463,3.08892 2.267858,4.53571 0.18479,0.36958 0.331843,3.02381 0.755951,3.02381 0.251984,0 -0.251984,-0.75595 0,-0.75595 0.607081,0 1.345684,2.85758 1.511906,3.02381 0.117811,0.11781 2.140228,0.88358 1.511903,1.5119 -1.774467,1.77447 -6.118164,2.68111 -8.315475,3.77976 -3.146092,1.57305 0.80814,-0.0522 -0.755952,1.51191 -0.251984,0.25198 -2.015874,0.50397 -2.267857,0.75595 -0.495539,0.49554 -1.602693,2.35865 -2.267858,3.02381 -0.356359,0.35636 -1.155544,0.35636 -1.511903,0 -1.067663,-1.06766 -1.799154,-3.1296 -2.267858,-4.53571 -0.786524,-2.35957 -0.503967,0.25198 -1.511906,-0.75596 -0.349448,-0.34945 0.228214,-1.81143 0,-2.26785 -1.573045,-3.1461 0.05219,0.80813 -1.511903,-0.75596 -0.356359,-0.35636 0.22538,-1.06114 0,-1.5119 -3.050032,-6.10006 -3.023809,-13.78185 -3.023809,-21.16667 0,-1.27979 -0.55998,-4.1717 0,-5.29166 0.518784,-1.03758 2.228175,-6.00794 2.267855,-6.04762 0.377978,-0.37798 1.13393,-0.37798 1.511906,-0.75596 1.011362,-1.01136 1.773108,-4.04096 3.023809,-5.29166 1.0551,-1.0551 4.020291,-3.26434 5.291667,-4.535715 0.356359,-0.35636 -0.35636,-1.155547 0,-1.511906 0.178181,-0.178181 0.530571,0.112691 0.755951,0 3.146094,-1.573046 -0.808138,0.05219 0.755954,-1.511906 0.35636,-0.356359 1.007936,0 1.511904,0 3.803517,0 3.280605,1.012751 5.291666,3.023812 0.251984,0.251984 2.015874,0.503967 2.267858,0.755951 1.284872,1.284873 1.933559,3.082044 3.023809,4.535714 z"
       style="fill:#0000ff;stroke:#000000;stroke-width:0.264583px;stroke-linecap:butt;stroke-linejoin:miter;stroke-opacity:1" />
    <path
       id="path16"
       d="m 112.6369,105.83333 c -14.208533,-0.1917 -25.702377,-0.34444 -25.702377,15.11905 0,2.30427 -0.197924,4.89582 0.755952,6.80357 0.112691,0.22538 0.577773,-0.17818 0.755951,0 0.712719,0.71272 -0.244459,2.04597 0,3.02381 0.589407,2.35762 4.408183,7.87373 6.803573,9.07143 4.546142,2.27307 13.968051,2.72825 18.898811,0.75595 2.20177,-0.88071 6.60239,-5.09048 8.31547,-6.80357 1.91657,-1.91657 5.40016,-21.81413 3.02381,-24.19048 -0.89339,-0.89339 -3.86729,-3.30497 -5.29166,-3.77976 -0.47811,-0.15937 -1.06114,0.22538 -1.51191,0 -2.84613,-1.42306 -1.63206,-2.20778 -6.04762,0 z"
       style="fill:#ff0000;stroke:#000000;stroke-width:0.264583px;stroke-linecap:butt;stroke-linejoin:miter;stroke-opacity:1" />
    <path
       id="path20"
       d="m 130.02381,99.02976 c 1.61829,5.84139 4.59815,11.11742 6.80357,16.63095 0.8229,2.05724 2.38034,4.11721 3.02381,6.04762 0.50726,1.5218 0.76155,9.06023 0,10.58333 -0.39843,0.79687 -1.11347,0.71505 -1.51191,1.51191 -0.71698,1.43396 -1.81941,4.68947 -3.02381,5.29167 -0.22538,0.11269 -0.57777,-0.17818 -0.75595,0 -1.04116,1.04115 -1.45592,2.23986 -3.02381,3.02381 -3.14609,1.57304 0.80814,-0.0522 -0.75595,1.5119 -0.33598,0.33598 -1.42791,-0.58796 -0.75595,0.75595 0.95115,1.90231 3.26353,1.75163 3.77976,2.26786 0.35636,0.35636 -0.35636,1.15555 0,1.5119 0.35636,0.35636 1.06114,-0.22538 1.5119,0 0.63748,0.31874 2.22463,1.51191 1.51191,1.51191 -2.51102,0 0.60493,-0.90698 1.5119,0 1.65316,1.65316 0.37448,2.27019 3.77977,0 1.82503,-1.21669 -0.25199,-0.25199 0.75595,-2.26786 0.11269,-0.22538 0.57777,0.17818 0.75595,0 0.0495,-0.0495 1.39252,-2.02909 1.51191,-2.26785 0.50697,-1.01395 0.27942,-2.82671 0.75595,-3.77977 0.5743,-1.1486 1.86715,-1.82169 2.26785,-3.02381 0.22679,-0.68035 -0.22678,-1.5875 0,-2.26785 0.42655,-1.27964 1.18551,-2.47418 1.51191,-3.77976 0.316,-1.26402 -0.57426,-3.38721 0,-4.53572 2.33091,-4.66181 2.47985,-14.48306 0.75595,-19.65476 -0.23905,-0.71716 0.33807,-1.59171 0,-2.26786 -0.78177,-1.56354 -2.01356,-2.01356 -3.02381,-3.02381 -1.31342,-1.31342 -3.35941,-4.115358 -4.53571,-5.291664 -0.25199,-0.251984 -2.01588,-0.503967 -2.26786,-0.755951 -0.17818,-0.178181 0.17818,-0.577774 0,-0.755955 -0.56345,-0.563454 -1.7044,-0.192497 -2.26786,-0.755951 -0.17818,-0.178181 0.17818,-0.577773 0,-0.755952 -1.94229,-1.942295 -4.18304,3.336311 -5.29166,3.779761 -0.96465,0.38586 -2.01587,0.503968 -3.02381,0.755952 z"
       style="fill:#0000ff;stroke:#000000;stroke-width:0.264583px;stroke-linecap:butt;stroke-linejoin:miter;stroke-opacity:1" />
    <path
       id="path22"
       d="m 155.72619,89.958332 c 2.01158,1.774299 1.13564,5.671357 3.02381,7.559524 0.39842,0.398423 1.19935,0.287131 1.5119,0.755952 0.49493,0.742394 0.46227,2.898712 0.75596,3.779762 0.44516,1.33549 1.8788,2.22355 2.26785,3.77976 0.17787,0.71149 -0.17787,1.55637 0,2.26786 0.25669,1.02673 1.25522,1.99707 1.51191,3.02381 0.30557,1.2223 -0.56346,2.65285 0,3.77976 0.31873,0.63748 1.2472,0.85016 1.5119,1.51191 0.74446,1.86115 1.16699,19.45637 0.75595,21.92261 -0.3542,2.12525 -1.76166,4.02285 -2.26785,6.04762 -0.86493,3.4597 1.52693,-0.78601 -0.75596,3.77976 -0.8219,1.64383 -2.32199,3.53713 -3.0238,5.29167 -0.18717,0.46792 0.27955,1.09258 0,1.51191 -0.31255,0.46882 -1.17384,0.30519 -1.51191,0.75595 -0.47811,0.63747 -0.34598,1.58457 -0.75595,2.26786 -1.92424,3.20705 -4.53572,4.21269 -4.53572,7.55952 0,3.05875 3.88675,7.66651 6.04762,9.82738 2.97343,2.97343 2.9285,3.73211 6.04762,5.29167 1.54861,0.7743 4.02,-2.61124 4.53572,-3.02381 4.35359,-3.48288 13.97335,-12.73611 16.63095,-17.38691 6.41577,-11.2276 7.65688,-23.41162 6.04762,-36.28571 -0.32423,-2.59384 -0.36597,-7.53551 -1.51191,-9.82738 -0.31873,-0.63748 -1.19316,-0.87443 -1.5119,-1.51191 -0.57461,-1.14922 -0.18134,-2.63053 -0.75595,-3.77976 -0.83328,-1.66656 -2.47622,-4.74407 -3.77977,-6.04762 -3.75016,-3.750159 -8.95243,-8.077477 -11.33928,-12.851188 -0.75595,-1.511906 -3.02381,-2.267857 -3.77976,-3.779761 -1.56378,-3.127541 -1.44779,-2.203738 -3.02381,-3.779763 -0.92074,-0.920737 -0.35411,-1.688957 -1.51191,-2.267857 -1.95908,-0.979538 -0.44509,0.44509 -1.5119,1.511905 -0.17818,0.178179 -0.57777,-0.178181 -0.75596,0 -1.08083,1.080837 -4.39615,8.136374 -5.29166,8.315476 -0.98837,0.197673 -2.01588,0 -3.02381,0 z"
       style="fill:#000000;stroke:#000000;stroke-width:0.264583px;stroke-linecap:butt;stroke-linejoin:miter;stroke-opacity:1" />
  </g>
</svg>
