<?xml version="1.0" encoding="UTF-8" standalone="no"?>
<svg
   xmlns:dc="http://purl.org/dc/elements/1.1/"
   xmlns:cc="http://creativecommons.org/ns#"
   xmlns:rdf="http://www.w3.org/1999/02/22-rdf-syntax-ns#"
   xmlns:svg="http://www.w3.org/2000/svg"
   xmlns="http://www.w3.org/2000/svg"
   xmlns:sodipodi="http://sodipodi.sourceforge.net/DTD/sodipodi-0.dtd"
   xmlns:inkscape="http://www.inkscape.org/namespaces/inkscape"
   sodipodi:docname="det.svg"
   inkscape:version="1.0 (4035a4fb49, 2020-05-01)"
   id="svg30"
   version="1.1"
   viewBox="0 0 210 297"
   height="297mm"
   width="210mm">
  <defs
     id="defs24" />
  <sodipodi:namedview
     inkscape:window-maximized="1"
     inkscape:window-y="-8"
     inkscape:window-x="1912"
     inkscape:window-height="1027"
     inkscape:window-width="1920"
     showgrid="false"
     inkscape:document-rotation="0"
     inkscape:current-layer="layer1"
     inkscape:document-units="mm"
     inkscape:cy="515.59585"
     inkscape:cx="231.00804"
     inkscape:zoom="0.7"
     inkscape:pageshadow="2"
     inkscape:pageopacity="0.0"
     borderopacity="1.0"
     bordercolor="#666666"
     pagecolor="#ffffff"
     id="base" />
  <metadata
     id="metadata27">
    <rdf:RDF>
      <cc:Work
         rdf:about="">
        <dc:format>image/svg+xml</dc:format>
        <dc:type
           rdf:resource="http://purl.org/dc/dcmitype/StillImage" />
        <dc:title></dc:title>
      </cc:Work>
    </rdf:RDF>
  </metadata>
  <g
     id="layer1"
     inkscape:groupmode="layer"
     inkscape:label="Layer 1">
    <rect
       y="34.017857"
       x="21.922617"
       height="157.61607"
       width="177.27083"
       id="rect32"
       style="fill:#000000;stroke-width:0.264583" />
    <path
       id="path34"
       d="m 177.64881,47.247024 c -11.36352,-0.165714 -22.72917,-1.021522 -34.01786,-1.889882 -1.75869,-0.135284 -3.53986,0.206094 -5.29167,0 -1.27607,-0.150125 -2.50481,-0.596583 -3.77976,-0.755952 -2.09923,-0.262403 -4.31132,0.124368 -6.42559,0 -9.93316,-0.584303 -19.90392,-0.377976 -29.860122,-0.377976 -5.967225,0 -13.810094,-0.584467 -19.654761,0 -1.882701,0.18827 -3.784113,0.630251 -5.669642,0.755952 -1.885696,0.125714 -3.787524,-0.171101 -5.669645,0 -4.540877,0.412808 -9.058241,0.720392 -13.607142,1.133928 -3.080205,0.280019 -8.56709,-0.151411 -11.339285,1.511905 -0.305575,0.183346 -0.450377,0.572606 -0.755952,0.755952 -0.973098,0.583859 -2.055521,0.921594 -2.645833,1.511906 -0.429649,0.429646 -0.08892,1.45629 -0.377976,1.889882 -0.197673,0.296508 -0.596585,0.437213 -0.755954,0.755951 -0.286906,0.573815 0.10043,2.043248 0,2.645833 -0.618162,3.708969 -0.852183,8.301583 -0.377976,12.095237 0.06443,0.515469 0.251984,1.007938 0.377976,1.511906 0.125992,0.629959 0.307033,1.251373 0.377976,1.889881 0.11131,1.001771 -0.111308,2.022036 0,3.02381 0.14189,1.277014 0.670486,2.497735 0.755954,3.77976 0.426987,6.404806 0.601686,12.889902 1.133927,19.276788 0.13602,1.632238 -0.171463,3.284795 0,4.913685 0.712637,6.77005 2.267858,13.60847 2.267858,20.41072 0,4.20906 0.03772,8.3163 -0.377976,12.47321 -0.18805,1.8805 0.134649,3.78457 0,5.66964 -0.169037,2.3665 -0.895787,4.80013 -1.13393,7.18155 -0.125365,1.25367 0.08381,2.52263 0,3.77976 -0.328324,4.92488 -0.377976,9.80213 -0.377976,14.74108 0,0.82889 -0.136488,9.31291 0,9.4494 1.394669,1.39467 5.780529,1.13393 7.559524,1.13393 3.11072,0 6.362594,0.34298 9.449406,0 2.408682,-0.26763 4.782399,-0.79119 7.181546,-1.13393 0.524123,-0.0749 2.851181,-0.14583 3.779763,-0.37798 2.7345,-0.68362 -0.745995,-0.49186 4.535715,-0.75595 7.501694,-0.37508 15.164369,0 22.67857,0 6.575705,0 13.096635,0.0501 19.654765,0.37798 3.25521,0.16276 6.58103,-0.28229 9.82738,0 1.89944,0.16517 3.7702,0.59078 5.66964,0.75595 2.0083,0.17463 4.03336,-0.0806 6.04762,0 3.04862,-1.19471 5.78872,0.60307 8.69345,0.75595 7.67585,0.404 15.36327,0.37798 23.05655,0.37798 1.28727,0 14.94224,0.1768 15.11905,0 0.53454,-0.53454 0,-1.51191 0,-2.26786 0,-6.88594 -0.22836,-13.55193 -0.75596,-20.41071 -0.44018,-5.72242 0,-11.65065 0,-17.38691 0,-14.169 0.32389,-28.23933 1.88989,-42.333329 0.56113,-5.050234 2.63357,-9.74772 3.40178,-14.741072 0.37338,-2.426951 0.37798,-5.088562 0.37798,-7.559524 0,-1.923873 0.15815,-3.793191 -0.37798,-5.669642 -0.5247,-1.836455 -1.14217,-4.556316 -1.88988,-6.425595 -0.7996,-1.999009 -1.99922,-3.120662 -3.02381,-4.91369 -0.65625,-1.148443 -1.15365,-2.297444 -1.88988,-3.401788 -0.43605,-0.654068 -0.47608,-1.610003 -1.13393,-2.267855 -0.47787,-0.477874 -0.077,-1.2109 -0.37798,-1.511906 -0.18898,-0.188989 -0.56696,-0.188989 -0.75595,-0.377975 -0.0891,-0.08909 0.12599,-0.377976 0,-0.377976 -0.51948,0 -1.00794,0.251984 -1.5119,0.377976 z"
       style="fill:#ffffff;stroke:#000000;stroke-width:0.264583px;stroke-linecap:butt;stroke-linejoin:miter;stroke-opacity:1" />
    <path
       id="path36"
       d="m 51.782739,52.160714 c 11.118625,0.259419 22.162878,-0.85377 33.261902,0 5.931223,0.456248 11.801729,1.213747 17.764879,1.511904 6.3288,0.316441 12.53427,0.303075 18.89881,0 1.2585,-0.05993 2.52676,0.131894 3.77976,0 1.15521,-0.1216 2.24917,-0.611876 3.40179,-0.755952 3.88367,-0.48546 8.23146,-0.05133 12.09524,0.377976 1.7531,0.194789 3.53226,-0.125672 5.29166,0 2.35697,0.168354 4.79592,0.615622 7.18155,0.755951 5.87976,0.345869 12.51743,-1.11919 18.14286,0.755955 0.34876,0.116255 1.29546,0.161536 1.5119,0.377975 0.50456,0.504561 0.37798,5.866842 0.37798,6.80357 0,5.795637 0,11.591272 0,17.386906 0,2.964778 0.29517,6.119704 0,9.071427 -0.22945,2.29447 -0.17039,4.520153 -0.37798,6.803573 -0.0941,1.03469 -0.62708,1.992876 -0.75595,3.023809 -0.44862,3.588952 -0.75595,7.708792 -0.75595,11.339282 0,2.54535 -0.57057,6.78917 0,9.07143 0.31367,1.25468 1.01113,4.28054 0,5.29167 -0.4593,0.4593 -3.53328,0.22186 -4.15774,0.37798 -0.17286,0.0432 -0.20665,0.32902 -0.37798,0.37797 -2.2962,0.65606 -4.85709,0.36854 -7.18154,0.75595 -1.88735,0.31456 -3.72932,0.85674 -5.66965,1.13393 -1.24725,0.17818 -2.52501,-0.11406 -3.77976,0 -5.90117,0.53647 -11.88556,0.59945 -17.76488,1.13393 -5.12376,0.4658 -10.36957,-0.42729 -15.49702,0 -4.04106,0.33676 -8.03249,0.2275 -12.09524,0.37798 -9.114887,0.33759 -18.464495,0.9149 -27.592263,0.37797 -2.939343,-0.1729 -6.802551,-0.75582 -9.827379,-1.13393 -1.638313,-0.20478 -5.439915,0.0116 -6.803572,-0.37797 -0.436793,-0.1248 -0.702969,-0.6123 -1.133928,-0.75595 -0.358581,-0.11953 -0.75783,0.0376 -1.13393,0 -2.532086,-0.25321 -2.621573,-0.28298 -4.157736,-1.51191 -0.491919,-0.39353 -1.23018,-0.57047 -1.511906,-1.13393 -2.610757,-5.22151 -1.889882,-12.85751 -1.889882,-18.52083 0,-4.15774 0,-8.315475 0,-12.473215 0,-1.604433 -0.34866,-3.722695 0,-5.291666 0.147185,-0.662332 0.660001,-1.218213 0.755955,-1.889882 0.160361,-1.122532 -0.125222,-2.274792 0,-3.401785 0.333684,-3.003161 1.086125,-6.090988 1.511903,-9.071427 0.232111,-1.624777 0.38236,-10.943783 0,-12.473215 -0.428554,-1.714211 -0.633765,-3.541096 -1.133928,-5.291667 -0.154794,-0.541774 -0.755954,-0.948451 -0.755954,-1.511905 0,-0.519478 0.251987,-1.007936 0.377979,-1.511904 z"
       style="fill:#000000;stroke:#000000;stroke-width:0.264583px;stroke-linecap:butt;stroke-linejoin:miter;stroke-opacity:1" />
    <path
       id="path38"
       d="m 60.098214,60.854166 c -0.653785,8.203327 1.227275,17.013512 -0.755954,24.946427 -0.350435,1.401749 -0.224504,3.910438 -0.377976,5.291667 -0.111196,1.000786 -0.590074,2.028541 -0.755951,3.023811 -0.223584,1.341499 0.266565,2.824912 0,4.157737 -0.704752,3.523762 -0.377976,7.326022 -0.377976,10.961312 0,1.26295 0.39611,3.34738 0,4.53571 -0.286771,0.86032 -0.7404,1.88988 -0.377976,1.88988 0.125992,0 -0.125992,-0.37797 0,-0.37797 0.356359,0 0.437213,0.59658 0.755952,0.75595 0.464634,0.23232 1.007935,0.25198 1.511905,0.37798 1.910827,0.4777 7.068937,0.87859 9.071428,0.37797 0.278918,-0.0697 2.046057,-0.26707 2.267857,-0.37797 0.112692,-0.0563 -0.08909,-0.28889 0,-0.37798 0.400476,-0.40048 1.854351,-0.34245 2.267858,-0.75595 0.08909,-0.0891 -0.08909,-0.28889 0,-0.37798 0.935085,-0.93509 3.031852,-1.70491 4.157736,-2.26786 0.578901,-0.28945 0.295585,-0.67356 0.755955,-1.13393 0.281564,-0.28156 1.298334,-0.54238 1.511903,-0.75595 0.08909,-0.0891 -0.08909,-0.28889 0,-0.37797 1.875351,-1.87535 4.386797,-2.72598 5.669642,-5.29167 1.603579,-3.20716 1.532065,-9.267983 1.13393,-12.85119 -0.114734,-1.032603 -0.627086,-1.992876 -0.755954,-3.023809 -0.146166,-1.169334 -0.06233,-3.966758 -0.377976,-4.913691 -0.143653,-0.430959 -0.666861,-0.68848 -0.755951,-1.13393 -0.172964,-0.864817 0.09739,-1.769282 0,-2.645834 -0.168852,-1.51966 -1.004216,-4.341143 -1.889882,-5.669642 -0.251984,-0.251984 -0.503968,-0.503968 -0.755952,-0.755952 -0.125992,0 -0.288885,0.08909 -0.377976,0 -1.215014,-1.215014 -1.785164,-3.29707 -3.023809,-4.535715 -1.032068,-1.032068 -2.211149,-1.752854 -3.401787,-2.645833 -0.78227,-0.586703 -1.388846,-1.828353 -2.267855,-2.267857 -0.112691,-0.05634 -0.251987,0 -0.377978,0 -0.251984,-0.125992 -0.521542,-0.221703 -0.755952,-0.377976 -3.436485,-2.29099 -7.395607,-4.482198 -11.717261,-3.401785 z"
       style="fill:#ffffff;stroke:#000000;stroke-width:0.264583px;stroke-linecap:butt;stroke-linejoin:miter;stroke-opacity:1" />
    <path
       id="path40"
       d="m 92.982141,62.366072 c 4.535715,0 9.071429,0 13.607139,0 5.00564,0 -3.13266,0.08285 3.77977,-0.377979 3.12375,-0.208248 6.33085,0.283507 9.4494,0 1.13868,-0.103515 3.71707,-0.976283 4.91369,-0.377975 0.16924,0.08462 -0.73407,10.961309 -0.37797,10.961309 0.12599,0 0.12599,-0.377976 0,-0.377976 -0.28173,0 -0.47563,0.349943 -0.75596,0.377976 -1.00293,0.100295 -2.01587,0 -3.02381,0 -4.28373,0 -8.56746,0 -12.85119,0 -1.38591,0 -2.77182,0 -4.15774,0 -0.37797,0 -1.13392,-0.377976 -1.13392,0 0,0.125991 0.37797,-0.125992 0.37797,0 0,0.178181 -0.29829,0.218609 -0.37797,0.377978 -0.17585,0.351695 -0.045,2.331178 0,2.645833 0.22865,1.600555 0.75595,3.287308 0.75595,4.913688 0,0.253379 -0.13319,4.124442 0,4.15774 2.44522,0.611306 5.10924,-0.377976 7.55952,-0.377976 1.13393,0 2.26786,0 3.40179,0 0.25198,0 0.75595,0.251984 0.75595,0 0,-0.125992 -0.37798,-0.125992 -0.37798,0 0,0.178178 0.32164,0.208939 0.37798,0.377976 0.26536,0.796065 0,2.190228 0,3.023809 0,2.771825 0,5.54365 0,8.315475 0,1.528475 -11.02079,-0.855715 -11.33929,-0.377975 -0.34943,0.524158 -0.15278,1.278731 0,1.889881 0.26237,1.049441 0.67773,5.819514 1.13393,6.047614 0.9606,0.4803 3.47316,0 4.53572,0 2.29349,0 4.90348,0.32544 7.18155,0 1.59704,-0.22815 3.31447,-0.48941 4.91369,-0.75595 0.393,-0.0655 0.7355,-0.37797 1.13392,-0.37797 0.37798,0 0,0.75595 0,1.13392 0,1.25993 0,2.51985 0,3.77977 0,0.88644 0.41854,7.85637 0,8.69345 -0.23836,0.47672 -12.15223,-1.414 -13.22916,-1.51191 -6.05366,-0.55033 -12.70703,1.18199 -18.520836,-0.75595 -0.213773,-0.0713 -0.982118,0.15181 -1.133928,0 -0.07763,-0.0776 0,-6.34736 0,-6.80357 0,-4.16778 0.584515,-9.137561 0,-13.229167 -0.98222,-6.875547 -1.772869,-18.871869 0.377976,-25.324403 0.235839,-0.707522 0.279562,-5.949206 0.377976,-6.047618 0.468059,-0.468059 2.297319,-0.08713 2.645833,0 z"
       style="fill:#ffffff;stroke:#000000;stroke-width:0.264583px;stroke-linecap:butt;stroke-linejoin:miter;stroke-opacity:1" />
    <path
       id="path42"
       d="m 130.02381,61.610118 c 2.06017,0.365074 4.38493,-0.45348 6.42559,0 0.55004,0.122232 0.9594,0.645451 1.51191,0.755954 0.74127,0.148254 1.51451,-0.06278 2.26785,0 4.68486,0.390403 9.39916,1.125553 13.98512,1.889879 3.86468,0.644115 10.5729,-0.124251 14.3631,-0.755952 0.87385,-0.145642 2.88771,-0.892045 3.02381,-0.755951 0.46905,0.469056 -0.18744,1.791507 -0.37798,2.267857 -0.73649,1.841225 -0.16422,3.745889 -0.37797,5.669642 -0.17165,1.544858 -0.37798,2.949025 -0.37798,4.535713 0,0.755954 0.53454,1.73332 0,2.267857 -0.20241,0.202409 -11.93202,-0.377975 -12.47321,-0.377975 -1.91219,0 -4.12928,-0.0854 -4.15774,0 -0.045,0.134993 0.03,1.589899 0,1.889881 -0.2275,2.274935 -0.15244,4.548166 -0.37798,6.80357 -0.52554,5.25544 -0.37797,10.566514 -0.37797,15.874997 0,2.72678 -0.30016,5.61407 0,8.31548 0.0664,0.59749 0.78519,5.6404 0.37797,6.04762 -0.44545,0.44545 -1.25992,0 -1.88988,0 -0.32733,0 -10.08514,0.12022 -10.20536,0 -0.73324,-0.73325 -0.75595,-9.31283 -0.75595,-10.58333 0,-6.929568 0,-13.85913 0,-20.788694 0,-0.392049 0.0849,-6.340666 0,-6.425594 -0.56236,-0.562364 -9.1266,-0.110355 -9.4494,-0.755955 -0.75737,-1.514742 0.77493,-12.435252 0,-13.985118 -0.32855,-0.657095 -0.80539,-1.232786 -1.13393,-1.889881 z"
       style="fill:#ffffff;stroke:#000000;stroke-width:0.264583px;stroke-linecap:butt;stroke-linejoin:miter;stroke-opacity:1" />
    <path
       id="path44"
       d="m 53.294642,146.27678 c 0.87853,-3.50887 6.121334,-10.41277 9.827381,-11.33928 0.816121,-0.20403 1.818958,0.13781 2.645834,0 1.086805,-0.18114 2.64932,-0.83015 3.77976,-0.37798 0.623623,0.24945 4.597257,3.52487 4.913691,4.15774 0.199798,0.39959 0.166323,1.0886 0.377976,1.5119 0.400325,0.80066 1.310148,1.25907 1.511906,2.26786 0.07413,0.37064 -0.119528,0.77535 0,1.13393 0.406469,1.21941 0.866452,0.81998 1.133927,1.88988 0.403688,1.61475 0.809427,7.34563 0.377976,9.07143 0.642398,1.02309 -0.57777,0.97737 -0.755951,1.5119 -0.06675,0.20025 -0.377976,2.79961 -0.377976,3.02381 0,0.94139 0.107971,9.34144 0,9.44941 -0.100052,0.10005 -0.978292,0 -1.133928,0 -1.557231,0 -2.949932,-0.23022 -3.779763,-1.88988 -0.05635,-0.11269 0.08909,-0.28889 0,-0.37798 -0.08909,-0.0891 -0.288885,0.0891 -0.377976,0 -0.08909,-0.0891 0.08909,-0.28889 0,-0.37797 -0.100052,-0.10006 -0.978291,0 -1.133927,0 -1.057524,0 -4.09026,-0.54896 -4.913691,0 -2.76307,1.84204 -11.457861,5.30279 -13.985121,1.5119 -2.312977,-3.46947 -1.992868,-6.66625 0.377979,-9.82738 0.316137,-0.42152 1.209402,-2.04103 1.889879,-2.26786 0.944723,-0.3149 2.026909,-0.42365 3.023809,-0.75595 0.169037,-0.0563 0.251986,-0.25199 0.377978,-0.37798 0.251984,-0.12599 0.482637,-0.30964 0.755952,-0.37797 1.238636,-0.30966 6.798468,-0.005 7.559524,0.75595 0.332581,0.33258 0.886158,1.26414 1.133927,1.5119 0.08909,0.0891 0.288888,-0.0891 0.377976,0 0.314981,0.31499 0.063,1.19693 0.377976,1.51191 0.178181,0.17818 1.007938,0 0.755954,0 -0.251984,0 -1.007938,0 -0.755954,0 1.137624,0 1.927781,0.32113 2.645833,-0.75595 0.69224,-1.03836 0.662427,-2.22303 1.13393,-3.40179 1.044612,-2.61153 0.467601,-6.66913 -1.13393,-9.07143 -0.466153,-0.69923 -1.177179,-0.7992 -1.511903,-1.13393 -0.08909,-0.0891 0.08909,-0.28888 0,-0.37797 -0.178181,-0.17818 -0.530572,0.11269 -0.755952,0 -0.159369,-0.0797 -0.218609,-0.29829 -0.377978,-0.37798 -0.18601,-0.093 -5.180925,-0.1629 -5.669642,0 -0.255593,0.0852 -1.725036,1.34706 -1.88988,1.51191 -0.125991,0.12599 -0.251986,1.00793 -0.377978,1.13393 -0.08909,0.0891 -0.288885,-0.0891 -0.377976,0 -0.188986,0.18898 0.188989,0.94494 0,1.13392 -0.159004,0.15901 -1.373462,-0.0692 -1.511903,0 -0.112691,0.0564 0.112689,0.32164 0,0.37798 -0.881351,0.44068 -3.407061,-0.19031 -4.157739,-0.37798 z"
       style="fill:#000000;stroke:#000000;stroke-width:0.264583px;stroke-linecap:butt;stroke-linejoin:miter;stroke-opacity:1" />
    <path
       id="path46"
       d="m 118.30655,128.13393 c -2.39179,3.74803 -4.85406,5.95816 -7.18155,9.4494 -0.24508,0.36762 -0.99586,0.71971 -1.13393,1.13393 -0.0797,0.23905 0.12964,0.53988 0,0.75595 -0.48528,0.80881 -2.61639,3.37235 -3.02381,3.77976 -0.0891,0.0891 -0.28889,-0.0891 -0.37798,0 -0.36874,0.36875 0.30971,0.67548 -0.37797,1.13393 -1.12023,0.74682 -1.5212,2.64274 -2.64584,2.26786 -0.98035,-0.32679 -1.48169,-0.92228 -2.26785,-1.5119 -0.93067,-0.698 -2.05594,-1.24464 -3.023812,-1.88989 -0.649957,-0.4333 -3.590586,-4.34654 -4.157737,-4.91369 -0.606827,-0.60682 -1.882656,-0.37797 -2.645833,-0.37797 -1.007938,0 -2.015874,0 -3.023812,0 -0.77738,0 -2.484993,0.75595 -1.511903,0.75595 0.125992,0 0,-0.50397 0,-0.37798 0,0.71716 -0.179652,1.92723 0,2.64584 0.670671,2.68269 3.39018,6.78616 4.913691,9.07143 0.29778,0.44667 0.907039,0.52906 1.133927,0.75595 0.08909,0.0891 -0.112691,0.32163 0,0.37797 0.302382,0.15119 0.831549,-0.15119 1.13393,0 0.913173,0.45659 1.800834,0.71143 2.645834,1.13393 0.396549,0.19828 1.588193,-0.30168 1.889879,0 0.309689,0.30969 0.697822,1.84622 0.377976,2.64584 -0.976956,1.46543 -0.612299,0.70297 -1.133928,2.26785 -0.891818,2.67546 -2.899272,4.24368 -4.535715,6.4256 -0.338071,0.45076 -0.403966,1.07192 -0.755951,1.5119 -1.759649,2.19956 -3.342093,4.7943 -4.535715,7.18155 -0.125992,0.25198 -0.755952,0.0963 -0.755952,0.37798 0,0.12599 0.377976,-0.126 0.377976,0 0,0.42419 -0.652299,0.6523 -0.755952,0.75595 -0.178181,0.17818 0.178178,0.57777 0,0.75595 -0.08909,0.0891 -0.288888,-0.0891 -0.377976,0 -0.178181,0.17818 0.178179,0.57778 0,0.75595 -0.245893,0.2459 -1.13393,0.61709 -1.13393,1.13393 0,0.38356 8.436015,0.75596 9.07143,0.75596 0.155636,0 1.033875,0.10005 1.133928,0 1.546526,-1.54653 5.375325,-7.81051 6.047615,-9.82739 0.20316,-0.60946 0.0907,-1.31526 0.37798,-1.88988 0.8738,-1.74759 2.14649,-3.53703 3.02381,-5.29166 0.60154,-1.20309 1.56456,-3.45444 2.26786,-4.15774 0.64242,-0.64243 1.27016,0.51421 1.5119,0.75595 0.32122,0.32122 0.86137,0.39254 1.13393,0.75595 0.23905,0.31874 0.1998,0.77757 0.37798,1.13393 0.15937,0.31874 0.59658,0.43722 0.75595,0.75595 1.02096,2.04193 1.28983,2.5348 3.02381,3.40179 1.22176,0.61088 2.86373,0.61809 3.77976,-0.75595 0.72072,-1.08107 0.14493,-0.49161 0.37798,-1.88988 0.32825,-1.96953 0.5537,-3.80629 -0.37798,-5.66965 -0.23905,-0.4781 -0.83742,-0.68916 -1.13393,-1.13392 -0.4702,-0.7053 -0.81068,-1.56664 -1.5119,-2.26786 -0.37629,-0.37629 -0.27321,-0.89256 -0.75596,-1.13393 -0.34588,-0.17294 -3.37793,-0.7321 -3.40178,-0.75595 -0.35636,-0.35636 -0.12223,-1.02299 0,-1.51191 0.15394,-0.61575 1.988,-3.49991 2.26786,-3.77976 0.28172,-0.28173 0.81519,-0.13892 1.13392,-0.37798 0.45077,-0.33807 0.40397,-1.07192 0.75596,-1.5119 0.55654,-0.69568 1.3957,-1.14861 1.88988,-1.88988 1.12068,-1.68103 2.28165,-3.23349 3.40178,-4.91369 0.33455,-0.50183 1.32379,-0.94756 1.51191,-1.51191 0.0983,-0.29475 0.64628,-2.04851 0.75595,-2.26785 0.15937,-0.31874 0.59658,-0.43722 0.75595,-0.75596 0.27441,-0.54881 0.56011,-2.82796 0.75596,-3.02381 0.78204,-0.78204 -0.0306,1.19507 0.75595,-0.37797 0.11269,-0.22538 -0.17818,-0.57777 0,-0.75595 0.0891,-0.0891 0.28888,0.0891 0.37797,0 0.17818,-0.17818 0,-0.50397 0,-0.75596 0,-0.37797 0.33808,-0.96489 0,-1.13392 -0.78929,-0.39465 -3.91849,0.44734 -4.53571,0.75595 -0.0793,0.0397 -2.46598,2.84396 -2.64583,3.02381 z"
       style="fill:#000000;stroke:#000000;stroke-width:0.264583px;stroke-linecap:butt;stroke-linejoin:miter;stroke-opacity:1" />
    <path
       id="path48"
       d="m 137.96131,151.19047 c 1.74813,-0.31592 3.53653,0.17552 5.29166,0 1.66735,-0.16673 3.34264,-0.74116 4.91369,-1.13392 2.06347,-0.51587 4.67682,-0.33061 6.80358,-0.75596 0.27625,-0.0553 0.47705,-0.33813 0.75595,-0.37797 0.88654,-0.12665 4.54151,-0.30586 5.29167,-0.75596 2.66354,-1.59812 3.40178,-3.85987 3.40178,-6.80357 0,-0.37797 0.16904,-0.79585 0,-1.13393 -0.70166,-1.40332 -8.42645,-4.7834 -10.20536,-5.29166 -1.96098,-0.56028 -4.38156,-0.37798 -6.42559,-0.37798 -3.97419,0 -7.73179,-0.29184 -11.33929,1.51191 -0.37797,0.25198 -0.75595,0.50397 -1.13393,0.75595 0,0.12599 0.1008,0.30238 0,0.37798 -0.45076,0.33807 -1.02874,0.46605 -1.5119,0.75595 -1.18561,0.71136 -2.42395,3.10798 -3.02381,4.15774 -0.25773,0.45103 -0.0898,1.07967 -0.37798,1.5119 -0.15627,0.23441 -0.57996,0.15799 -0.75595,0.37798 -0.75672,0.9459 -0.79399,2.51391 -1.13393,3.02381 -0.15627,0.23441 -0.59968,0.14356 -0.75595,0.37797 -0.25198,0.37798 0.12599,0.75595 0,1.13393 -0.85595,2.56786 -1.44943,6.3928 -0.37798,9.07143 0.24738,0.61843 0.95245,1.16395 1.13393,1.88988 0.0611,0.24446 -0.11269,0.53057 0,0.75595 0.28173,0.56346 0.85221,0.94845 1.13393,1.51191 0.11269,0.22538 -0.11269,0.53057 0,0.75595 0.75595,1.5119 0.56697,0.18899 1.13393,1.13393 0.2899,0.48316 0.40396,1.07192 0.75595,1.5119 0.176,0.22 0.53057,0.20894 0.75596,0.37798 1.0439,0.78293 1.91324,1.97949 3.0238,2.64583 0.21608,0.12965 0.5169,-0.0797 0.75596,0 0.33807,0.11269 0.41788,0.64326 0.75595,0.75596 6.61868,2.20622 20.23461,2.34302 24.56845,-4.15774 0.51086,-0.76629 1.43424,-0.97861 1.88988,-1.88988 1.18542,-2.37085 -0.1226,-3.08511 -2.26785,-4.15774 -1.90147,-0.95073 -6.98414,-1.17341 -9.07143,-0.75595 -0.66532,0.13306 -1.22063,0.6444 -1.88988,0.75595 -1.85707,0.30951 -3.81258,0.0685 -5.66965,0.37797 -1.88778,0.31464 -2.98419,0.32159 -4.91369,0 -0.37283,-0.0621 -0.77535,0.11953 -1.13393,0 -0.43096,-0.14365 -0.72761,-0.55279 -1.13392,-0.75595 -0.40142,-0.20071 -1.17497,-0.041 -1.51191,-0.37797 -0.15646,-0.15647 -0.5988,-6.20477 -0.37798,-6.4256 0.30261,-0.3026 2.49844,-0.37798 2.64584,-0.37798 z"
       style="fill:#000000;stroke:#000000;stroke-width:0.264583px;stroke-linecap:butt;stroke-linejoin:miter;stroke-opacity:1" />
    <path
       id="path52"
       d="m 55.940475,162.15178 c -0.126632,2.68686 0.546955,2.16336 2.267858,3.02381 0.338071,0.16904 0.755951,0 1.133927,0 2.82362,0 6.054003,-1.49275 4.913691,-4.91369 -0.52746,-1.58238 -2.649707,-1.13522 -3.779761,-1.5119 -0.119528,-0.0398 0.112691,-0.32163 0,-0.37798 -0.450763,-0.22538 -1.007938,0 -1.511906,0 -2.282132,0 -3.023809,1.36135 -3.023809,3.77976 z"
       style="fill:#ffffff;stroke:#000000;stroke-width:0.264583px;stroke-linecap:butt;stroke-linejoin:miter;stroke-opacity:1" />
    <path
       id="path54"
       d="m 150.43452,139.85119 c -2.26786,0 -4.53571,0 -6.80357,0 -1.96018,0 -6.08093,-0.72264 -7.55952,0.75595 -0.22919,0.22919 -0.37798,1.66912 -0.37798,2.26786 0,1.61239 0.64324,2.91109 1.51191,3.77976 0.17817,0.17818 0.53057,-0.11269 0.75595,0 0.80875,0.40438 -0.0528,0.35157 0.75595,0.75595 0.29942,0.14971 1.79728,-0.0154 1.88988,0 1.81881,0.30314 4.17343,0.84653 6.04762,0.37798 0.17286,-0.0432 0.25199,-0.25198 0.37798,-0.37798 0.25198,-0.12599 0.48263,-0.30964 0.75595,-0.37797 0.97819,-0.24455 2.5014,-0.1557 3.40178,-0.75596 0.54319,-0.36212 0.31719,-1.60971 0.75596,-2.26785 0.19767,-0.29651 0.59658,-0.43722 0.75595,-0.75596 0.16903,-0.33807 -0.26727,-0.86665 0,-1.13392 0.0378,-0.0378 0.84414,-0.28979 0.37798,-0.75596 -0.19921,-0.19921 -0.55675,-0.17876 -0.75596,-0.37797 -0.50397,-0.50397 0.62996,-0.37798 -0.37797,-0.37798"
       style="fill:#ffffff;stroke:#000000;stroke-width:0.264583px;stroke-linecap:butt;stroke-linejoin:miter;stroke-opacity:1" />
    <path
       id="path56"
       d="m 66.145832,74.839284 c 0.174835,1.738514 -0.246887,3.563451 0,5.291667 0.146932,1.028514 0.64719,1.990561 0.755952,3.023809 0.314635,2.989029 0,6.42031 0,9.449406 0,4.3035 -0.377976,8.532944 -0.377976,12.851194 0,0.41902 0.181203,1.1495 0,1.5119 -0.0492,0.0984 -0.673449,0.46048 -0.377976,0.75595 0.637871,0.63787 3.89975,-0.23665 4.535715,-0.37797 2.515362,-0.55897 5.275475,-1.11774 7.181546,-3.02381 0.398423,-0.39842 0.357532,-1.11348 0.755954,-1.51191 0.19921,-0.19921 0.599679,-0.14356 0.755952,-0.37797 0.215268,-0.32291 0.09193,-6.629966 0,-7.181551 -0.213077,-1.278454 -0.193675,-2.489661 -0.377976,-3.779761 -0.112691,-0.788837 -0.624951,-1.481857 -0.755951,-2.267857 -0.196893,-1.181346 0.09621,-5.099251 -0.377979,-6.047621 -0.159366,-0.318736 -0.623602,-0.42508 -0.755951,-0.755952 -0.140378,-0.350941 0.07413,-0.763291 0,-1.133927 -0.189807,-0.949032 -0.980515,-1.559338 -1.511904,-2.267858 -0.591021,-0.788027 -0.164933,-1.479833 -0.755954,-2.267857 -0.527817,-0.703758 -4.232735,-5.568651 -4.535712,-5.669643 -0.358582,-0.119528 -0.795859,0.169037 -1.13393,0 -0.513731,-0.256865 -0.998173,-0.877064 -1.511904,-1.13393 -0.32087,-0.160435 -1.831837,-1.191971 -1.889881,-1.133927 -0.358704,0.358703 0.222062,5.423969 0.377975,6.047618 z"
       style="fill:#000000;stroke:#000000;stroke-width:0.264583px;stroke-linecap:butt;stroke-linejoin:miter;stroke-opacity:1" />
  </g>
</svg>
