<?xml version="1.0" encoding="UTF-8" standalone="no"?>
<svg
   xmlns:dc="http://purl.org/dc/elements/1.1/"
   xmlns:cc="http://creativecommons.org/ns#"
   xmlns:rdf="http://www.w3.org/1999/02/22-rdf-syntax-ns#"
   xmlns:svg="http://www.w3.org/2000/svg"
   xmlns="http://www.w3.org/2000/svg"
   xmlns:sodipodi="http://sodipodi.sourceforge.net/DTD/sodipodi-0.dtd"
   xmlns:inkscape="http://www.inkscape.org/namespaces/inkscape"
   sodipodi:docname="ha.svg"
   inkscape:version="1.0 (4035a4fb49, 2020-05-01)"
   id="svg49"
   version="1.1"
   viewBox="0 0 210 297"
   height="297mm"
   width="210mm">
  <defs
     id="defs43" />
  <sodipodi:namedview
     inkscape:window-maximized="1"
     inkscape:window-y="-8"
     inkscape:window-x="1912"
     inkscape:window-height="1027"
     inkscape:window-width="1920"
     showgrid="false"
     inkscape:document-rotation="0"
     inkscape:current-layer="layer1"
     inkscape:document-units="mm"
     inkscape:cy="533.26201"
     inkscape:cx="350.89208"
     inkscape:zoom="0.7"
     inkscape:pageshadow="2"
     inkscape:pageopacity="0.0"
     borderopacity="1.0"
     bordercolor="#666666"
     pagecolor="#ffffff"
     id="base" />
  <metadata
     id="metadata46">
    <rdf:RDF>
      <cc:Work
         rdf:about="">
        <dc:format>image/svg+xml</dc:format>
        <dc:type
           rdf:resource="http://purl.org/dc/dcmitype/StillImage" />
        <dc:title></dc:title>
      </cc:Work>
    </rdf:RDF>
  </metadata>
  <g
     id="layer1"
     inkscape:groupmode="layer"
     inkscape:label="Layer 1">
    <path
       id="path51"
       d="m 1.1165206,77.626616 c 1.7890403,0.83436 2.4307137,2.508387 3.7653782,3.739054 0.4371401,0.403079 1.0110822,0.665224 1.4482222,1.068302 1.5215522,1.402991 0.30104,0.655691 1.4482223,2.136601 1.3170634,1.700213 0.4973187,-0.189463 1.7378666,1.869526 0.2524993,0.419088 0.3267901,0.916296 0.5792891,1.335376 1.355958,2.250548 2.978937,4.410118 4.344665,6.676882 1.812902,3.008948 3.984997,5.930673 5.503246,9.080563 1.129585,2.34352 2.058804,4.87227 3.18609,7.21102 1.204754,2.49949 1.695352,5.22391 2.606799,7.74519 0.209959,0.58079 -0.455711,2.51762 0,2.93783 0.61319,0.5654 3.562604,-0.68772 4.055022,-0.80123 1.468739,-0.33857 3.134633,-0.3805 4.63431,-0.53415 0.767663,-0.0786 1.567832,0.17273 2.317156,0 0.526206,-0.1213 -0.485085,-3.47846 -0.579289,-3.73906 -0.583716,-1.61469 -1.396037,-3.2061 -2.027511,-4.80735 -0.337931,-0.8569 -1.054084,-1.55568 -1.448223,-2.40367 -0.541083,-1.16416 -1.024386,-2.37551 -1.737867,-3.47198 -1.019114,-1.56618 -2.747887,-3.25619 -3.186087,-5.07443 -0.04815,-0.19982 -1.06489,-3.291299 -0.868935,-3.471982 0.136541,-0.1259 0.391958,0.04317 0.57929,0 0.296196,-0.06826 0.585459,-0.162523 0.868933,-0.267077 0.801011,-0.295434 1.844847,-0.892653 2.606799,-1.068298 0.280997,-0.0648 0.60987,0.119435 0.868934,0 0.193097,-0.08902 0.116934,-0.414714 0.289645,-0.534149 0.830653,-0.574446 2.32206,-0.402878 3.186089,-0.801227 0.311358,-0.143551 0.622784,-0.761121 0.868933,-0.534156 0.136541,0.125908 -0.08635,0.374904 0,0.534156 0.237971,0.438851 0.727124,0.812335 0.868932,1.335376 0.369995,1.36465 0.869531,2.9392 1.448223,4.273207 0.821386,1.89345 1.978123,3.74569 2.896446,5.60858 0.290852,0.59002 0.339083,1.26043 0.579288,1.86952 0.992426,2.51652 2.109528,4.99643 3.186088,7.47811 0.301347,0.69466 0.376026,1.93512 0.57929,2.40368 0.101418,0.23379 0.457163,0.30893 0.579288,0.53415 0.08636,0.15925 -0.06106,0.36524 0,0.53415 0.439236,1.21503 0.273708,1.78214 2.027512,1.60245 0.344346,-0.0353 2.17886,-0.40262 2.606799,-0.53415 0.07982,-0.0245 1.712316,-0.24351 1.737867,-0.26708 0.29597,-0.2729 0.216343,-0.99742 0.289644,-1.33537 0.622136,-2.8683 0.09863,-4.53453 -0.868933,-7.21104 -0.311358,-0.86128 -0.267931,-1.80945 -0.579288,-2.67075 -0.300698,-0.8318 -0.838759,-1.57796 -1.158578,-2.40367 -0.889419,-2.29633 -1.58904,-4.69166 -2.6068,-6.943958 -1.211849,-2.681816 -2.555258,-5.334274 -3.765378,-8.012261 -1.058424,-2.342274 -2.736193,-4.487956 -4.055022,-6.676878 -0.2525,-0.419084 -0.321332,-0.919128 -0.579288,-1.335376 -2.822967,-4.55525 -8.081592,-9.953321 -12.744357,-12.819614 -0.394304,-0.242386 -3.40132,1.051147 -4.63431,1.335377 -0.187332,0.04319 -0.406579,-0.07963 -0.579289,0 -0.0086,0.004 -0.07428,1.175564 0,1.335377 0.190161,0.409134 0.629427,0.681824 0.868933,1.0683 1.662384,2.682491 2.891061,5.417291 4.055022,8.279334 0.33388,0.820969 0.927953,1.553061 1.158578,2.403677 0.188789,0.696313 0.06597,1.449129 0.289645,2.136601 0.05313,0.163308 1.389647,1.673474 0.289644,1.335376 -0.898064,-0.276023 -1.926275,-0.434752 -2.896444,-0.534149 -1.211123,-0.124085 -5.553523,0.48779 -6.372179,-0.267078 -1.548394,-1.427741 -2.374749,-3.268628 -3.765376,-4.807352 -0.704728,-0.779777 -1.311108,-1.632999 -2.027511,-2.403677 -0.140498,-0.151143 -0.426633,-0.126314 -0.57929,-0.267076 -0.305311,-0.281521 -0.273976,-0.786778 -0.579289,-1.068301 -0.144823,-0.133538 -0.434467,-0.133538 -0.579288,-0.267074 -0.305313,-0.281523 -0.30956,-0.757413 -0.579291,-1.068302 -0.378834,-0.436647 -1.4002291,-1.5582 -1.7378647,-1.869527 -0.7747933,-0.714421 -3.0500209,1.036934 -4.3446668,1.335377 -0.2973426,0.06854 -0.9357216,0.06159 -1.1585779,0.267075 -0.088429,0.08154 -0.5370944,0.750228 -0.8689337,0.801225 -0.4761725,0.07318 -0.965481,0 -1.4482223,0 z"
       style="fill:#000000;stroke:#000000;stroke-width:0.194691px;stroke-linecap:butt;stroke-linejoin:miter;stroke-opacity:1" />
    <path
       id="path55"
       d="m 50.356076,97.924335 c 0.221205,-2.062523 -0.153033,-4.127258 -0.289645,-6.142729 -0.102382,-1.51048 0.163319,-3.034361 0,-4.54028 -0.214617,-1.978955 -0.579287,-3.872651 -0.579287,-5.875656 0,-0.766402 -0.149199,-7.874685 0,-8.012258 0.426519,-0.393285 2.559288,0.115593 3.186087,0 0.390349,-0.07199 0.802526,-0.431229 1.158578,-0.267075 0.3692,0.170217 0.775704,0.683546 1.158577,0.801225 0.549835,0.168997 0.901472,-0.08853 1.158579,0.267077 1.223323,1.692002 -0.262247,0.06315 0.289644,1.335375 0.129284,0.298026 0.457059,0.500679 0.579289,0.801227 0.716836,1.76261 0.801669,3.82006 1.448222,5.60858 0.771601,2.134434 1.965425,4.406612 2.317155,6.676881 0.144268,0.931176 -0.236176,1.061444 0.289644,1.869521 0.140499,0.215921 0.477871,0.300365 0.57929,0.534156 1.204799,2.777298 -1.329302,-1.862469 0.289645,1.869524 0.377109,0.869315 2.754952,5.471976 2.606799,5.608581 -0.142676,0.131561 -1.921444,-0.177171 -2.896444,-0.267078 -0.250366,-0.02311 -5.081922,0.121421 -5.2136,0 -0.77325,-0.712994 -1.547239,-8.904776 -2.027511,-9.347626 -0.307908,-0.283916 -2.123287,0.355388 -2.317156,0.534149 -0.184933,0.170522 0,1.388458 0,1.60245 0,0.623172 -0.09558,1.252612 0,1.869524 0.125797,0.81196 1.179398,3.70066 0.868933,4.273205 -0.215881,0.398123 -2.219523,0.711949 -2.606799,0.801227 z"
       style="fill:#000000;stroke:#000000;stroke-width:0.194691px;stroke-linecap:butt;stroke-linejoin:miter;stroke-opacity:1" />
    <path
       id="path57"
       d="m 52.673231,79.763219 c 0,0.801226 0,1.602451 0,2.403677 0,0.220891 -0.634137,2.779003 -0.289645,2.937828 0.392573,0.180992 2.051956,-0.289613 2.317156,-0.534151 0.123853,-0.1142 0.124902,-1.906261 0,-2.136601 -0.683357,-1.260221 -1.583981,-1.034876 -2.027511,-2.670753 z"
       style="fill:#ffffff;stroke:#000000;stroke-width:0.194691px;stroke-linecap:butt;stroke-linejoin:miter;stroke-opacity:1" />
    <path
       id="path59"
       d="m 61.362563,74.154639 c 1.12607,3.218104 1.140045,6.608523 2.027511,9.881784 0.608785,2.245385 1.488556,4.440557 2.027512,6.676878 0.131017,0.543631 0.694947,5.448149 0.868934,5.608581 0.563003,0.519133 2.574711,-1.845854 2.606796,-1.869525 0.561938,-0.414516 2.0076,-0.288276 2.896451,-0.534156 0.794978,-0.219906 1.789992,-0.691719 2.606795,-1.068298 1.247795,-0.575279 2.959486,-1.318622 4.344672,-1.602453 0.759858,-0.155698 1.766743,0.240446 2.317148,-0.267071 0.247953,-0.228632 -0.104325,-1.164504 -0.28964,-1.335372 -0.785208,-0.724032 -1.916609,-1.288055 -2.606803,-2.136603 -0.23547,-0.289505 -0.697221,-1.122677 -1.158574,-1.335376 -1.534614,-0.707519 -5.792901,2.670745 -7.530754,1.869525 -1.686933,-0.77774 -1.481786,-3.390579 -1.737869,-4.807357 -0.445337,-2.463827 -1.689887,-4.451798 -2.896445,-6.67688 -0.08777,-0.161864 -0.168271,-0.68931 -0.289644,-0.801227 -0.214685,-0.197957 -0.509426,-0.202655 -0.868932,-0.53415 -0.70349,-0.648674 0.08613,-0.392179 -0.579291,-0.801225 -0.693532,-0.426329 -0.776942,-0.267075 -1.737867,-0.267075 z"
       style="fill:#000000;stroke:#000000;stroke-width:0.194691px;stroke-linecap:butt;stroke-linejoin:miter;stroke-opacity:1" />
    <path
       id="path61"
       d="m 84.534119,90.980379 c 0,-0.120714 -0.503269,-1.181851 -0.579287,-1.60245 -1.291106,-7.143015 -4.346036,-12.460885 -8.978983,-18.428194 1.245856,-0.127757 2.142944,-1.655669 3.18609,-2.136602 0.172717,-0.07963 0.391964,0.04319 0.579295,0 0.543554,-0.125301 0.999183,-0.327127 1.448221,-0.53415 0.465453,-0.214594 1.238047,0.153624 1.737861,0 2.326597,-0.715101 5.006314,-0.680345 7.530763,-1.068301 1.118703,-0.171923 2.027508,-0.133681 2.027508,0.801226 0,0.667168 -0.174847,1.491697 0,2.136602 0.07548,0.278444 0.951803,1.526039 0.579287,1.869527 -0.20481,0.18885 -0.579287,0 -0.868934,0 -2.267285,0 -3.044822,0.03421 -5.213599,0.53415 -0.968155,0.22318 -3.647566,-0.366691 -3.18609,1.335377 0.134938,0.497693 0.715099,0.909833 0.868934,1.335376 0.130333,0.360532 0.142188,1.199407 0.579287,1.602452 0.342683,0.315977 4.998881,-0.601912 5.503246,-0.801227 0.524045,-0.207088 1.984925,-1.374646 2.606804,-0.801225 0.270773,0.249675 0.289639,1.938403 0.289639,2.136602 0,0.37595 0.04153,3.433684 0,3.471979 -0.37873,0.349223 -5.633855,-0.293272 -6.082533,0.53415 -0.417973,0.770817 0.155062,3.11856 0.289647,3.739054 0.231424,1.066954 0.868935,2.702413 0.868935,3.739055 0,0.534149 0,1.068298 0,1.60245 0,0.08902 0,0.356095 0,0.267071 0,-0.178047 0.193093,-0.534145 0,-0.534145 -0.215891,0 -0.136992,0.393385 -0.289648,0.534145 -0.215883,0.199068 -0.579287,0.178054 -0.868934,0.267078 -0.443352,0.136266 -1.690971,0 -2.027509,0 z"
       style="fill:#000000;stroke:#000000;stroke-width:0.194691px;stroke-linecap:butt;stroke-linejoin:miter;stroke-opacity:1" />
    <path
       id="path63"
       d="m 91.09226,111.125 c 0.50397,-0.75595 1.135948,-1.44075 1.511906,-2.26786 0.265842,-0.58485 0.17482,-1.28041 0.377975,-1.88988 1.683859,-5.05157 0.513678,-0.35283 2.267858,-4.91369 1.594318,-4.145228 2.923445,-8.492724 4.913691,-12.473214 1.40792,-2.815833 2.10825,-5.84767 3.40178,-8.693451 2.44958,-5.389065 -0.27947,3.10628 2.64584,-5.669645 0.98086,-2.942582 0.0669,-0.846151 0.37797,-3.023809 0.18904,-1.323216 0.81363,-2.498559 1.13393,-3.779761 0.0887,-0.354793 -0.23384,-1.278064 0,-1.511906 0.33949,-0.339481 3.73591,0 4.53572,0 0.57292,0 3.41143,-0.368332 3.77976,0 0.50373,0.50373 0,3.783941 0,4.535715 0,5.527582 -0.39835,11.196664 0.37798,16.630952 0.1069,0.748355 -0.23906,1.550699 0,2.267857 0.14365,0.430959 0.61229,0.702969 0.75595,1.13393 0.36811,1.104352 0.063,2.677269 0.37797,3.779761 0.1248,0.436792 0.57701,0.716388 0.75596,1.133927 0.20463,0.477478 0.19557,1.025504 0.37797,1.511906 1.36906,3.650828 3.97139,6.058148 4.91369,9.827378 0.0857,0.34274 0.80325,1.84259 0.37798,2.26786 -0.36217,0.36217 -6.72813,-0.33264 -7.18155,-0.37798 -1.10084,-0.11008 -7.20743,-0.0129 -7.9375,-0.37797 -0.50605,-0.25303 -0.31334,-2.94933 -0.37797,-3.40179 -0.19331,-1.35314 -0.96997,-4.408 -1.13393,-6.047616 -0.15235,-1.523445 -0.0161,-2.71026 -0.37798,-4.157739 -0.2399,-0.959581 0.6342,-3.901514 0,-4.535715 -0.22028,-0.220282 -3.30692,3.117201 -3.40179,3.401787 -0.48641,1.459257 0.0995,4.754026 0,6.047623 -0.0797,1.03589 -0.60902,1.99529 -0.75595,3.0238 -0.18521,1.29651 -0.11969,2.48833 -0.37797,3.77977 -0.0398,0.19899 0.18099,1.70889 0,1.88988 -0.26727,0.26727 -0.75596,0 -1.13393,0 -1.299832,0 -4.497523,0.58606 -5.669645,0 -0.22538,-0.11269 0,-0.50397 0,-0.75595"
       style="fill:#000000;stroke:#000000;stroke-width:0.264583px;stroke-linecap:butt;stroke-linejoin:miter;stroke-opacity:1" />
    <path
       id="path65"
       d="m 106.96726,84.28869 c 0.49487,-1.402149 0.84756,-2.829044 1.51191,-4.157739 0.57843,-1.15687 0.75651,-1.891557 1.13392,-3.023809 0.0713,-0.213773 -0.15181,-0.982118 0,-1.133928 0.0891,-0.08909 0.26529,-0.05635 0.37798,0 0.24537,0.122682 2.24844,2.587564 2.26786,2.645833 0.233,0.699016 0.55122,5.960997 0.37797,6.047619 -1.15711,0.578559 -4.52895,-0.09281 -5.66964,-0.377976 z"
       style="fill:#ffffff;stroke:#000000;stroke-width:0.264583px;stroke-linecap:butt;stroke-linejoin:miter;stroke-opacity:1" />
    <path
       id="path67"
       d="m 119.81845,69.547617 c 1.56176,1.505189 2.63994,3.395893 4.15774,4.913691 1.89352,1.893523 4.44589,4.356063 5.66964,6.803573 0.49682,0.993627 0.12868,2.026637 0.37798,3.023809 0.0683,0.273314 0.37797,0.474226 0.37797,0.755951 0,0.251984 -0.51689,-0.07968 -0.75595,0 -0.68649,0.228831 -0.70146,0.323491 -1.13393,0.755952 -0.57045,0.570455 -0.94145,1.319429 -1.5119,1.889882 -0.19921,0.19921 -0.55674,0.178765 -0.75595,0.377976 -0.126,0.125991 -0.25199,1.007938 -0.37798,1.13393 -0.30885,0.308845 -1.20306,0.825079 -1.5119,1.133927 -0.17818,0.178181 0.11269,0.530572 0,0.755952 -0.26065,0.521284 -0.80585,1.019775 -1.13393,1.511906 -0.45696,0.685429 -2.13821,5.79929 -1.88988,6.047618 0.35636,0.356359 1.09257,0.279551 1.5119,0 0.23441,-0.156274 0.17876,-0.556742 0.37798,-0.755952 0.39842,-0.398423 1.07192,-0.403966 1.5119,-0.755952 0.62996,-0.503967 1.31943,-0.941451 1.88988,-1.511905 0.32122,-0.321218 0.40123,-0.850149 0.75595,-1.133928 0.78775,-0.630198 2.30969,-0.797782 3.02381,-1.511906 0.0891,-0.08909 -0.11269,-0.32163 0,-0.377975 0.40318,-0.201587 1.10873,0.201586 1.51191,0 1.16716,-0.583581 2.77687,-1.889882 4.15774,-1.889882 0.65693,0 3.40454,-0.375214 3.77976,0 0.0891,0.08909 -0.0891,0.288888 0,0.377976 0.17818,0.178181 0.57777,-0.178179 0.75595,0 0.12599,0.125992 0.25198,1.007938 0.37798,1.13393 0.18936,0.189365 0.88613,0.508158 1.13393,0.755951 0.51251,0.512514 1.23422,1.612204 1.88988,2.267858 1.51052,1.510527 0.51345,1.305078 2.26785,1.889881 0.27734,0.09244 1.40058,2.245855 1.88988,1.511904 0.7728,-1.159193 4.15143,-9.084064 3.40179,-10.583333 -0.25629,-0.512588 -2.55109,-1.771701 -3.02381,-1.88988 -0.36669,-0.09167 -0.78299,0.140375 -1.13393,0 -0.33087,-0.132349 -0.44654,-0.579149 -0.75595,-0.755954 -0.62996,-0.251984 -1.25992,-0.503968 -1.88988,-0.755951 -0.25198,0 -0.52199,0.09358 -0.75595,0 -0.93611,0.209547 -0.94845,-0.852202 -1.51191,-1.133928 -0.33071,-0.165356 -1.26784,-0.215265 -1.5119,-0.377978 -0.23441,-0.156274 -0.17877,-0.556742 -0.37798,-0.755952 -0.24779,-0.247793 -0.94456,-0.566587 -1.13393,-0.755952 -0.17818,-0.178181 0,-0.503967 0,-0.755951 0,-1.820884 1.86734,-4.268706 3.40179,-5.291667 0.23441,-0.156276 0.57996,-0.157985 0.75595,-0.377978 1.10139,-1.376736 1.72103,-2.854952 3.02381,-4.157737 0.21931,-0.21931 1.25352,-1.830083 1.13393,-1.889881 -0.68368,-0.341837 -3.74842,-0.196824 -4.53572,0 -1.12046,0.280117 -3.40309,2.079521 -4.53571,2.645833 -0.59716,0.29858 -1.80856,0.296659 -2.26786,0.755952 -0.84726,0.847264 -1.01912,4.79888 -1.13393,4.91369 -0.17817,0.178181 -0.53057,0.112692 -0.75595,0 -0.98414,-0.492069 -2.27649,-1.520536 -3.02381,-2.267857 -0.73718,-0.737182 -1.23354,-2.128676 -2.26785,-2.645833 -0.1127,-0.05634 -0.28889,0.08909 -0.37798,0 -0.0891,-0.08909 0.0891,-0.288886 0,-0.377976 -0.51066,-0.510657 -2.66239,-1.265441 -3.40179,-1.511904 -0.35858,-0.119528 -0.79585,0.169035 -1.13392,0 -0.31874,-0.159369 -0.43722,-0.596585 -0.75596,-0.755954 -1.4372,-0.7186 -0.74569,-0.01027 -1.5119,0.755954 -0.35204,0.352037 -0.37798,-0.02965 -0.37798,0.755952"
       style="fill:#000000;stroke:#000000;stroke-width:0.264583px;stroke-linecap:butt;stroke-linejoin:miter;stroke-opacity:1" />
    <path
       id="path69"
       d="m 154.59226,69.547617 c 0.37798,1.637898 0.80427,3.26539 1.13393,4.913691 0.74507,3.725368 1.17066,7.585591 1.5119,11.339285 0.13429,1.477142 -0.61096,11.484282 0.37798,12.473215 0.39842,0.398423 0.97737,-0.577773 1.5119,-0.755952 0.35858,-0.119528 0.7611,0.06214 1.13393,0 2.79992,-0.466653 5.4326,-3.153537 7.9375,-3.779763 1.14327,-0.285816 2.25606,-0.183089 3.40179,-0.755952 0.11269,-0.05634 -0.0699,-0.273145 0,-0.377975 0.98698,-1.480469 1.13892,-1.914861 1.5119,-3.779761 0.095,-0.47484 1.00242,-4.371404 0.75596,-4.535715 -1.04588,-0.697249 -4.82941,-0.958988 -6.04762,-0.755952 -0.61508,0.102513 -1.28324,0.604293 -1.88988,0.755952 -0.3667,0.09167 -0.86666,-0.267269 -1.13393,0 -0.0891,0.08909 0.0891,0.288885 0,0.377976 -0.34782,0.347818 -2.48126,2.054452 -3.02381,1.511905 -0.40025,-0.400248 -0.75595,-2.041371 -0.75595,-2.645833 0,-4.294073 -0.93049,-3.779763 3.40178,-3.779763 0.29596,0 1.70128,0.188603 1.88988,0 1.12509,-1.125091 1.51191,-2.895261 1.51191,-4.535715 0,-0.251984 0.22538,-0.64326 0,-0.755952 -0.40232,-0.201157 -5.80372,-0.621876 -6.04762,-0.377976 -0.2473,0.247301 -0.822,3.335737 -1.13393,3.02381 -0.2478,-0.247793 -0.18861,-1.322539 -0.37798,-1.511904 -0.18899,-0.188989 -0.56696,-0.188989 -0.75595,-0.377978 -0.17846,-0.178464 -0.47111,-4.442579 -0.37798,-4.535713 0.29035,-0.290353 2.69376,0 3.02381,0 1.75802,0 5.62131,0.520081 7.18155,0 1.04507,-0.348358 1.43802,-1.060047 2.26786,-1.889881 0.60291,-0.602912 1.63604,-2.019591 1.13393,-3.023809 -0.8079,-1.615803 -3.44269,-1.52213 -4.91369,-1.889882 -0.54663,-0.136657 -0.9594,-0.645448 -1.51191,-0.755952 -1.8116,-0.36232 -10.57444,-0.0089 -11.71726,1.133928 -0.97992,0.979924 -0.29565,4.109066 0,5.291666 z"
       style="fill:#000000;stroke:#000000;stroke-width:0.264583px;stroke-linecap:butt;stroke-linejoin:miter;stroke-opacity:1" />
    <path
       id="path71"
       d="m 91.09226,111.125 c 1.279601,-0.29804 1.18872,-3.02381 2.645833,-3.02381 0.50397,0 1.007938,0 1.511906,0 0.125992,0 0.503968,0 0.377976,0 -0.251984,0 -1.007936,0 -0.755952,0 0.503968,0 1.007935,0 1.511903,0 0.125992,0 0.490667,-0.0564 0.377979,0 -0.35636,0.17818 -0.755955,0.25199 -1.13393,0.37798"
       style="fill:#ffffff;stroke:#000000;stroke-width:0.264583px;stroke-linecap:butt;stroke-linejoin:miter;stroke-opacity:1" />
    <path
       id="path75"
       d="m 2.2678571,95.249999 c 0.1259921,-0.62996 0.1249083,-1.29939 0.3779762,-1.889882 0.4020436,-0.938101 4.7933885,-3.487676 5.6696427,-3.779761 0.4781063,-0.159369 1.0147937,0.08285 1.5119048,0 2.1490532,-0.358177 4.2992762,-0.401566 6.4255952,-0.755951 2.909916,-0.484987 5.782015,-0.89131 8.693452,-1.13393 0.755953,-0.125992 1.511905,-0.251984 2.267857,-0.377976 0.251983,-0.125992 0.479697,-0.322726 0.755954,-0.377976 1.189598,-0.237921 3.39761,-0.08129 4.535712,0 8.605531,0.61468 16.882774,3.118181 23.8125,8.315476 0.450763,0.338071 1.061143,0.41788 1.511906,0.755951 0.977098,0.732825 1.442931,1.820911 2.267857,2.645834 0.721829,0.721828 1.943825,1.187876 2.645834,1.889886 0.19921,0.19921 0.221702,0.52154 0.377975,0.75595 0.590595,0.88589 3.886473,3.05938 4.913691,3.40178 0.792335,0.26411 0.893509,0.72167 1.511903,1.13393 1.187842,0.7919 2.541675,1.27084 3.779764,1.88988 0.478105,0.23906 0.675563,0.85891 1.133927,1.13393 0.784548,0.47073 1.583656,0.41385 2.267858,0.75595 0.356359,0.17818 -0.09625,0.8522 -0.377976,1.13393 -0.67849,0.67849 -1.76389,0.75595 -2.645833,1.13393 -1.223569,0.52439 -2.849645,1.33774 -3.779764,2.26786 -0.156739,0.15674 -0.633799,1.45083 -0.755951,1.5119 -0.577774,0.28889 -0.829758,-0.38245 -1.133928,0.37798 -0.192931,0.48232 -0.185047,1.02958 -0.377976,1.5119 0.141277,0.82343 -0.629962,0.12599 -0.755954,0.37798 -0.05507,0.11015 -0.408109,2.26786 -0.377976,2.26786 0.453144,0 -0.698248,-0.80717 -1.133927,-1.13393 -1.682015,-1.26151 -2.789304,-3.37144 -4.535715,-4.53572 -0.331507,-0.221 -0.80972,-0.14639 -1.133928,-0.37797 -1.593794,-1.13842 -3.068653,-2.87406 -4.535715,-4.15774 -3.015908,-2.63892 -6.070835,-5.15441 -9.449405,-7.18155 -3.427635,-2.05658 -7.523996,-2.76235 -11.339285,-3.77976 C 30.591207,98.015194 26.971357,97.095711 23.056547,96.383926 18.429645,95.542673 7.1195829,92.824135 2.2678571,95.249999 Z"
       style="fill:#ff6600;stroke:#000000;stroke-width:0.264583px;stroke-linecap:butt;stroke-linejoin:miter;stroke-opacity:1" />
    <path
       id="path81"
       d="m 5.6696427,148.54464 c 2.7992016,-0.71546 5.6202923,-1.56776 8.3154763,-2.64583 4.981641,-1.99266 9.749254,-5.15265 15.119047,-6.04762 4.152943,-0.69216 8.317987,-2.33127 12.473215,-3.02381 2.143398,-0.35723 4.280752,-0.77645 6.425594,-1.13393 0.62139,-0.10356 1.278731,0.15279 1.889882,0 2.051526,-0.51288 3.953878,-1.36645 6.047618,-1.88988 0.488921,-0.12223 1.022985,0.12223 1.511906,0 0.440706,-0.11018 0.702969,-0.6123 1.133927,-0.75595 0.318765,-0.10626 0.835441,0.14924 1.13393,0 0.489884,-0.24494 1.907855,-0.39595 2.267855,-0.75595 0.362905,-0.36291 0.158221,-0.51203 1.13393,-0.75596 0.851086,-0.21277 2.243466,0.39017 3.023809,0 1.412714,-0.70635 1.351095,0.16081 1.889882,-0.37797 0.08909,-0.0891 -0.08909,-0.28889 0,-0.37798 0.178179,-0.17818 0.577773,0.17818 0.755952,0 0.08909,-0.0891 -0.08909,-0.28889 0,-0.37798 0.804148,-0.80414 0.910098,-0.0771 1.511906,-0.37797 0.112688,-0.0564 -0.08909,-0.28889 0,-0.37798 0.188986,-0.18899 0.944938,0.18899 1.133927,0 0.08909,-0.0891 -0.08909,-0.28888 0,-0.37797 0.216252,-0.21626 1.602026,0 1.889882,0 1.458002,0 4.277974,0.46388 5.669642,0 0.83997,-0.27999 1.788369,-0.63346 2.645833,-0.75596 0.623629,-0.0891 1.268492,0.10357 1.889882,0 0.175755,-0.0293 0.205116,-0.33476 0.377976,-0.37797 1.789411,-0.44736 4.214781,-0.55231 6.047618,-0.75596 0.910037,-0.10111 2.160937,0.28763 3.023809,0 0.552392,-0.18412 1.227114,-0.64549 1.889882,-0.75595 1.103281,-0.18388 2.298504,0.18388 3.401785,0 1.665766,-0.27762 3.334392,-0.36112 4.913692,-0.75595 1.30672,-0.32668 2.23557,0.13675 3.77976,-0.37798 0.57766,-0.19255 1.65454,0 2.26786,0 2.56959,0 9.26843,0.51772 11.33928,0 3.924,-0.981 8.38595,-0.1509 12.47322,-0.37797 5.55724,-0.30874 11.06017,-0.37798 16.63095,-0.37798 3.90575,0 7.81151,0 11.71726,0 2.06414,0 4.69673,-0.24786 6.80357,0 1.52226,0.17909 3.01057,0.60344 4.53572,0.75595 10.34359,1.03436 -3.65638,-1.05679 5.66964,0.37798 1.78479,0.27458 3.53676,0.84144 5.29167,1.13393 0.74566,0.12428 1.5195,-0.10691 2.26785,0 1.43523,0.20503 2.72252,0.92889 4.15774,1.13393 0.37418,0.0534 0.77535,-0.11953 1.13393,0 0.43096,0.14365 0.70858,0.59644 1.13393,0.75595 2.41994,0.90748 5.16396,1.24119 7.55952,2.26786 0.41754,0.17894 0.70858,0.59644 1.13393,0.75595 0.87068,0.32651 2.12217,0.45541 3.02381,0.75595 0.11637,0.0388 1.13393,0.82976 1.13393,0.75595 0,-0.12599 -0.25198,0 -0.37798,0 -0.50397,0 -1.00793,0 -1.5119,0 -1.25992,0 -2.51984,0 -3.77977,0 -3.11027,0 -6.40404,-0.45141 -9.4494,-0.75595 -8.76286,-0.87629 -17.73325,-1.17722 -26.45833,-2.26786 -3.87404,-0.48425 -7.81046,-0.37797 -11.71726,-0.37797 -4.93772,0 -9.85381,-0.11075 -14.74107,0.37797 -2.1492,0.21492 -4.68586,0 -6.80358,0 -2.96247,0 -5.78959,0.015 -8.69345,0.37798 -1.48767,0.18596 -3.04201,-0.13579 -4.53571,0 -3.01138,0.27376 -6.21028,0.41864 -9.07143,1.13393 -1.23366,0.30841 -3.10418,-0.27344 -5.29167,0 -0.51546,0.0644 -0.9956,0.32061 -1.5119,0.37798 -0.75133,0.0835 -1.534478,-0.18335 -2.26786,0 -1.319671,0.32991 -4.893001,-0.0104 -5.669643,0.37797 -1.814232,0.90712 -4.361944,0.34322 -6.425594,0.75595 -2.03477,0.40696 -3.999912,0.12202 -6.047618,0.37798 -4.035639,0.50446 -8.040685,0.62711 -12.095239,1.13393 -2.642743,0.33034 -5.297739,7.9e-4 -7.9375,0.37797 -1.435007,0.20501 -3.129031,-0.35167 -4.535715,0 -2.329246,0.58232 -4.764064,1.332 -7.181546,1.88989 -3.096122,0.71448 -6.444578,0.88827 -9.449405,1.88988 -6.837032,2.27901 -14.103835,4.10012 -21.166667,5.66964 -4.529368,1.00653 -8.5647184,2.70814 -12.8511903,3.77976 z"
       style="fill:#00ffff;stroke:#000000;stroke-width:0.264583px;stroke-linecap:butt;stroke-linejoin:miter;stroke-opacity:1" />
    <path
       id="path79"
       d="m 86.934523,101.67559 c -1.402942,-0.11581 -3.130306,0.86245 -4.157736,1.88988 -0.32122,0.32122 -0.406975,0.84311 -0.755955,1.13393 -1.337886,1.11491 -3.202146,1.85694 -4.535712,3.02381 -0.474094,0.41483 -0.655627,1.10193 -1.13393,1.51191 -0.427805,0.36669 -1.043083,0.4434 -1.511903,0.75595 -5.543646,3.69576 0.01606,-0.20905 -2.267858,2.64583 -0.851342,1.06418 -2.367063,1.38095 -3.401787,2.26786 -0.427805,0.36669 -0.357529,1.11348 -0.755952,1.5119 -0.19921,0.19921 -0.599678,0.14357 -0.755952,0.37798 -0.139776,0.20966 0,0.50397 0,0.75595 -0.251983,0.37798 -0.434734,0.81271 -0.755951,1.13393 -0.08909,0.0891 -0.288888,-0.0891 -0.377979,0 -0.452665,0.45267 -0.04942,3.50062 -0.377975,4.15774 -0.48654,0.97308 -0.920256,2.51431 -1.511904,3.40178 -0.29651,0.44477 -0.837419,0.68917 -1.13393,1.13393 -0.953349,1.43003 -1.28502,3.43944 -2.267857,4.91369 -0.19767,0.29651 -0.623602,0.42508 -0.755952,0.75596 -0.140377,0.35094 0.103838,0.77049 0,1.13392 -0.534757,1.87166 -2.231451,3.88684 -3.023809,5.66965 -0.09017,0.20289 -0.715399,2.585 -0.755952,2.64583 -0.156273,0.23441 -0.556741,0.17876 -0.755954,0.37798 -0.469143,0.46914 -0.09782,1.23174 -0.377976,1.5119 -0.08909,0.0891 -0.288885,-0.0891 -0.377975,0 -0.423866,0.42387 -0.510842,1.77764 -0.755952,2.26786 -0.03486,0.0697 -0.661683,0.37887 -0.755952,0.75595 -0.09167,0.36669 0.140375,0.78299 0,1.13393 -0.15549,0.38872 -1.511906,1.39126 -1.511906,1.88988 0,0.37798 0.755952,0 1.133928,0 1.637898,0 3.275795,0 4.913691,0 1.125667,0 0.902647,0.14669 1.511905,0.75595 0.188987,0.18899 0.944941,-0.18899 1.133928,0 0.125992,0.126 0.251984,0.50397 0.377976,0.37798 0.192889,-0.19289 0.292034,-2.01003 0.377978,-2.26786 1.022154,-3.06647 2.909247,-5.6047 4.535713,-8.31547 0.507711,-0.84619 0.701836,-1.78165 1.13393,-2.64584 0.862949,-1.7259 2.076201,-3.25537 3.023809,-4.91369 1.014002,-1.7745 1.573958,-3.88318 2.645833,-5.66964 0.09167,-0.15279 0.251984,-0.25198 0.377976,-0.37798 0.251984,-0.37797 0.552796,-0.72761 0.755951,-1.13393 0.185037,-0.37007 0.556374,-0.73477 0.755955,-1.13392 0.05634,-0.1127 -0.125992,-0.37798 0,-0.37798 1.393208,0 3.070865,1.92125 4.157736,2.64583 1.177388,0.78493 2.883006,1.70131 4.157739,2.26786 0.728165,0.32363 1.494804,0.56269 2.267858,0.75595 0.244459,0.0611 0.546288,-0.13977 0.755951,0 0.234411,0.15628 0.143566,0.59968 0.377976,0.75595 0.638321,0.42555 1.981317,0.0457 2.645834,0.37798 2.703819,1.35191 6.044816,1.25899 9.071427,2.26786 0.435128,0.14504 5.669642,1.46967 5.669642,1.13393 0,-0.12599 -0.44786,0.10483 -0.37798,0 0.49419,-0.74128 1.3957,-1.14861 1.88988,-1.88988 0.81503,-1.22254 1.5543,-2.49536 2.26786,-3.77977 0.38698,-0.69656 0.44206,-1.53544 0.75595,-2.26785 0.2869,-0.66942 1.31606,-1.86241 1.51191,-2.64584 0.63564,-2.5426 1.06195,-5.4537 1.88989,-7.9375 0.25533,-0.76599 1.05198,-3.63174 0,-4.15773 -0.71273,-0.35636 -1.53545,-0.44207 -2.26786,-0.75596 -2.07385,-0.88879 -3.41273,-1.89352 -5.66965,-2.64583 -1.43968,-0.4799 -3.18828,-0.83819 -4.535712,-1.51191 -0.318738,-0.15936 -0.450376,-0.5726 -0.755952,-0.75595 -1.659726,-0.99583 -5.464407,-2.06262 -6.803572,-3.40178 -0.19921,-0.19921 -0.136398,-0.61101 -0.377976,-0.75596 -0.44545,-0.26727 -1.029581,-0.18504 -1.511906,-0.37797 -1.167664,-0.46707 0.295603,-0.37798 -0.755951,-0.37798"
       style="fill:#ffffff;stroke:#000000;stroke-width:0.264583px;stroke-linecap:butt;stroke-linejoin:miter;stroke-opacity:1" />
  </g>
</svg>
