<?xml version="1.0" encoding="UTF-8" standalone="no"?>
<svg
   xmlns:dc="http://purl.org/dc/elements/1.1/"
   xmlns:cc="http://creativecommons.org/ns#"
   xmlns:rdf="http://www.w3.org/1999/02/22-rdf-syntax-ns#"
   xmlns:svg="http://www.w3.org/2000/svg"
   xmlns="http://www.w3.org/2000/svg"
   xmlns:sodipodi="http://sodipodi.sourceforge.net/DTD/sodipodi-0.dtd"
   xmlns:inkscape="http://www.inkscape.org/namespaces/inkscape"
   sodipodi:docname="laax.svg"
   inkscape:version="1.0 (4035a4fb49, 2020-05-01)"
   id="svg8"
   version="1.1"
   viewBox="0 0 210 297"
   height="297mm"
   width="210mm">
  <defs
     id="defs2" />
  <sodipodi:namedview
     inkscape:window-maximized="1"
     inkscape:window-y="-8"
     inkscape:window-x="1912"
     inkscape:window-height="1027"
     inkscape:window-width="1920"
     showgrid="false"
     inkscape:document-rotation="0"
     inkscape:current-layer="layer1"
     inkscape:document-units="mm"
     inkscape:cy="589.12971"
     inkscape:cx="452.26479"
     inkscape:zoom="0.7"
     inkscape:pageshadow="2"
     inkscape:pageopacity="0.0"
     borderopacity="1.0"
     bordercolor="#666666"
     pagecolor="#ffffff"
     id="base" />
  <metadata
     id="metadata5">
    <rdf:RDF>
      <cc:Work
         rdf:about="">
        <dc:format>image/svg+xml</dc:format>
        <dc:type
           rdf:resource="http://purl.org/dc/dcmitype/StillImage" />
        <dc:title></dc:title>
      </cc:Work>
    </rdf:RDF>
  </metadata>
  <g
     id="layer1"
     inkscape:groupmode="layer"
     inkscape:label="Layer 1">
    <rect
       y="18.142857"
       x="12.851191"
       height="166.30952"
       width="179.53868"
       id="rect10"
       style="fill:#000000;stroke-width:0.264583" />
    <path
       id="path12"
       d="m 24.568452,26.836309 c 1.396349,0.817261 0.05676,2.060157 0.377976,3.023809 0.17818,0.53454 0.60116,0.970132 0.755953,1.511906 0.313431,1.097007 0.173884,2.279282 0.377976,3.401785 0.968383,5.32611 1.508765,10.561362 2.267858,15.875 0.124724,0.87308 -0.144992,1.775888 0,2.645833 0.534585,3.207512 0.377975,6.533994 0.377975,9.827381 0,1.573768 -0.223795,3.347122 0,4.913691 0.175229,1.226593 0.109374,4.485854 0.377976,5.291667 0.474057,1.422172 0.84051,3.068621 1.133928,4.535712 0.252592,1.262954 0.0665,2.533859 0.377978,3.779763 0.227523,0.910093 -0.136318,8.270037 0,8.315476 1.459836,0.486611 8.228052,0 10.205355,0 8.718817,0 17.375518,-0.377976 26.080357,-0.377976 5.184423,0 10.337125,0.377976 15.497024,0.377976 1.259922,0 2.519841,0 3.779763,0 0.377976,0 1.133928,0.377976 1.133928,0 0,-0.125992 -0.377976,0.125992 -0.377976,0 0,-0.281725 0.338135,-0.477057 0.377976,-0.755951 0.535408,-3.747858 0.145058,-10.701862 -0.377976,-14.363097 -0.20203,-1.414216 0.633217,-5.036426 -0.377976,-6.047618 -0.420764,-0.420762 -4.390408,0 -5.291666,0 -5.51134,0 0.989078,-0.124278 -4.535715,0.377976 -4.944684,0.449516 -10.159916,0 -15.119048,0 -4.157737,0 -8.315476,0 -12.473213,0 -0.50397,0 -1.155546,0.356359 -1.511906,0 -0.560948,-0.560949 0,-3.586517 0,-4.535715 0,-9.449404 0,-18.898809 0,-28.348212 0,-2.015874 0,-4.031748 0,-6.047621 0,-0.300334 0.414322,-1.877764 0.377976,-1.889879 -4.221591,-1.407197 2.762393,2.025679 -2.645833,-0.377976 C 44.685807,27.671866 44.149369,27.109152 43.46726,26.836309 42.870776,26.597715 42.197178,26.62737 41.577381,26.458333 37.30495,25.293125 33.224901,23.8125 28.72619,23.8125 c -0.184314,0 -5.234102,-0.493106 -5.291666,-0.377976 -0.530712,1.061422 0.802547,2.849484 1.133928,3.401785 z"
       style="fill:#ffffff;stroke:#000000;stroke-width:0.264583px;stroke-linecap:butt;stroke-linejoin:miter;stroke-opacity:1" />
    <path
       id="path14"
       d="m 99.785714,88.068451 c 2.303146,-7.360862 6.755166,-13.766475 9.827376,-20.788691 0.63878,-1.460066 0.85244,-3.084872 1.51191,-4.535712 0.304,-0.668806 0.83946,-1.216824 1.13393,-1.889882 2.10476,-4.810892 3.4132,-10.117429 4.91369,-15.119048 2.37917,-7.930573 -0.72171,3.299044 1.5119,-3.401785 0.53951,-1.618525 2.12939,-8.459182 3.77976,-9.449406 1.02612,-0.61567 4.11171,0.08428 5.29167,0 3.81761,-0.272685 7.50896,-0.377976 11.33929,-0.377976 5.47351,0 10.79432,0.392044 16.25297,0.755954 1.64291,0.109527 5.52176,0.115044 6.80357,0.755952 0.78473,0.392361 0.37798,5.500825 0.37798,6.80357 0,4.496168 0.79328,8.800777 1.13393,13.229166 0.4553,5.918875 1.15069,11.851341 1.88988,17.764882 0.65976,5.278115 1.40938,10.589453 1.88988,15.875 0.0694,0.763233 0.10888,1.550273 0.37798,2.267857 0.1595,0.425347 1.07717,0.81271 0.75595,1.133928 -0.21823,0.218228 -8.98481,0 -10.20536,0 -2.76973,0 -11.37975,0.616471 -13.22916,0 -0.27791,-0.09263 0,-5.759575 0,-6.425594 0,-3.869788 -0.42815,-5.920463 -1.13393,-9.449406 -0.24586,-1.229257 -0.3814,-6.806991 -1.13393,-7.559522 -0.0649,-0.06487 -6.32161,0.01156 -6.4256,0 -1.49862,-0.166515 -6.33301,-0.802243 -6.42559,-0.755954 -0.0978,0.04892 0.0422,1.007197 0,1.13393 -0.14608,0.438245 -0.56572,1.950802 -0.75595,2.267858 -0.18335,0.305575 -0.57261,0.450376 -0.75596,0.755951 -0.83488,1.391465 -1.27113,3.206742 -2.26785,4.535715 -2.4551,3.273465 -4.94024,6.856653 -6.80358,10.583333 -0.3216,0.6432 -0.45154,1.659044 -0.75595,2.267855 -0.36497,0.729954 -1.97007,0.377979 -2.64583,0.377979 -1.69495,0 -13.85051,-0.134607 -13.98512,0 -0.13231,0.132305 -0.16527,0.732385 -0.75595,0.377976 -0.54019,-0.324112 -1.00794,-0.755955 -1.511906,-1.13393 z"
       style="fill:#ffffff;stroke:#000000;stroke-width:0.264583px;stroke-linecap:butt;stroke-linejoin:miter;stroke-opacity:1" />
    <path
       id="path16"
       d="m 29.482142,166.30952 c 0.755952,-1.5119 1.480579,-3.03988 2.267858,-4.53571 1.81243,-3.44362 4.035933,-6.66566 5.669642,-10.20536 1.432737,-3.10426 2.538365,-6.442 4.157739,-9.4494 0.430739,-0.79995 1.081164,-1.46792 1.511903,-2.26786 2.059816,-3.82537 3.80958,-7.76462 5.669643,-11.71726 0.888018,-1.88704 1.433639,-3.97257 2.645833,-5.66965 0.310695,-0.43497 0.837422,-0.68916 1.13393,-1.13392 1.180314,-1.77048 2.949932,-7.48565 4.157737,-8.69346 0.241427,-0.24142 2.296012,0 2.645833,0 4.303691,0 8.563983,-0.37797 12.851191,-0.37797 1.942616,0 9.3927,-0.0851 9.449405,0 0.871869,1.3078 1.755625,8.70514 2.267858,10.58333 3.17581,11.64464 6.72352,23.33219 8.693452,35.15179 0.552989,3.31794 0.139038,-0.57778 0.755951,1.88988 0.324424,1.29769 0.165246,1.92501 0.755954,3.40178 0.22116,0.5529 0.755952,3.65258 0.755952,2.26786 0,-0.12599 -0.251984,0 -0.377976,0 -0.503968,0 -1.007938,0 -1.511906,0 -4.545846,0 -9.511553,-0.61615 -13.985118,0.37798 -0.626126,0.13914 -2.462681,0.9391 -3.023809,0.37797 -1.043019,-1.04302 -1.219266,-5.10872 -1.511906,-6.42559 -0.09106,-0.40976 -1.018725,-2.3326 -1.133927,-3.02381 -0.655222,-3.93133 -1.620682,-7.97559 -3.023809,-11.71726 -0.147786,-0.3941 -0.255942,-2.5238 -0.377979,-2.64584 -0.369988,-0.36999 -4.923104,0.12913 -5.669642,0.37798 -1.133928,0.37797 -2.645833,-0.37798 -3.779761,0 -0.505254,0.16842 -0.377976,3.05501 -0.377976,3.77976 0,1.93399 0.471758,4.53857 0,6.4256 -0.136657,0.54662 -0.619294,0.96527 -0.755954,1.5119 -0.469479,1.87793 -0.28647,4.16969 -0.755952,6.04762 -0.136657,0.54663 -0.601159,0.97013 -0.755951,1.5119 -0.04382,0.15339 -0.730414,4.1322 -0.755952,4.15774 -0.267271,0.26727 -0.755954,0 -1.13393,0 -1.908037,0 -3.785293,0.16861 -5.669642,0.37798 -2.579129,0.28657 -17.853054,2.22377 -19.276785,1.5119 -0.721574,-0.36078 -1.027859,-1.24449 -1.511906,-1.88988 z"
       style="fill:#ffffff;stroke:#000000;stroke-width:0.264583px;stroke-linecap:butt;stroke-linejoin:miter;stroke-opacity:1" />
    <path
       id="path18"
       d="m 106.58928,113.77083 c 3.08571,2.55874 6.23133,5.0974 9.07143,7.9375 1.12707,1.12707 4.47425,4.44351 5.29167,5.66964 0.5961,0.89416 1.94365,1.33162 2.64583,2.26786 0.16904,0.22538 0.17877,0.55674 0.37798,0.75595 0.71222,0.71223 1.95031,1.19437 2.64583,1.88988 0.70835,0.70836 -1.71366,1.80178 -1.88988,1.88989 -2.6895,1.34475 -6.00311,2.51239 -8.31547,4.53571 -2.03607,1.78155 -3.89664,3.2407 -6.04762,4.91369 -2.04214,1.58833 -3.52636,3.90433 -5.29167,5.66964 -0.73718,0.73719 -2.12868,1.23355 -2.64583,2.26786 -0.17818,0.35636 -0.17299,0.79228 -0.37798,1.13393 -0.69698,1.16163 -2.192005,1.66233 -2.645832,3.02381 -0.520173,1.56051 -0.377978,3.23267 -0.377978,4.91369 0,0.46628 -0.198065,1.49375 0,1.88988 0.0731,0.14619 5.8612,-0.34691 6.04762,-0.37798 0.82523,-0.13754 1.45492,-0.75595 2.26786,-0.75595 0.88194,0 1.78101,0.17296 2.64583,0 0.17472,-0.0349 0.20326,-0.34303 0.37798,-0.37797 2.89366,-0.57874 7.41266,0 10.58333,0 0.32001,0 2.76258,0.26123 3.02381,0 0.18047,-0.18047 0.55914,-1.2495 0.75595,-1.51191 0.83246,-1.10995 2.02432,-2.15875 2.64583,-3.40179 0.31441,-0.62882 1.06166,-2.08301 1.51191,-2.64583 0.17599,-0.21999 0.62996,-0.12599 0.75595,-0.37797 0.16904,-0.33808 -0.14038,-0.78299 0,-1.13393 0.33921,-0.84801 2.19253,-2.94848 3.02381,-3.77977 1.0167,-1.01669 2.04972,0.76676 2.64583,1.51191 2.17584,2.7198 4.74517,4.74517 7.18155,7.18155 0.99263,0.99263 1.77512,2.39946 3.02381,3.02381 2.13257,1.06628 5.45037,0.37797 7.9375,0.37797 3.24298,0 7.29264,-0.4701 10.58333,0 4.59811,0.65687 -5.08068,0.37798 3.77977,0.37798 2.64583,0 5.29166,0 7.9375,0 0.75595,0 1.5119,0 2.26785,0 0.12599,0 0.37798,0.12599 0.37798,0 0,-0.12599 -0.37798,0.12599 -0.37798,0 0,-0.17818 0.43432,-0.20894 0.37798,-0.37798 -0.15152,-0.45454 -3.28344,-3.90957 -3.77976,-4.15774 -1.57305,-0.78652 0.40407,0.0261 -0.37798,-0.75595 -0.61493,-0.61493 -2.18638,-1.52926 -3.02381,-2.64583 -0.16903,-0.22538 -0.15259,-0.58692 -0.37797,-0.75595 -0.5428,-0.4071 -1.30809,-0.40688 -1.88988,-0.75596 -2.11091,-1.26654 -3.91065,-2.97053 -6.04762,-4.15773 -0.45411,-0.25229 -1.0578,-0.1257 -1.51191,-0.37798 -2.71395,-1.50775 -1.04998,-1.16546 -3.02381,-2.64583 -1.85059,-1.38795 -4.02908,-2.51718 -5.66964,-4.15774 -0.62996,-0.62996 -1.17716,-1.35534 -1.88988,-1.88988 -0.31874,-0.23906 -0.80242,-0.15697 -1.13393,-0.37798 -0.0646,-0.0431 -3.36562,-2.95148 -3.40179,-3.02381 -0.18397,-0.36795 5.6272,-3.6787 6.4256,-4.15774 2.60581,-1.56348 5.02172,-3.28224 7.55952,-4.91369 1.09115,-0.70145 2.33527,-1.15152 3.40179,-1.88988 0.58599,-0.40568 0.91889,-1.11656 1.5119,-1.5119 0.56454,-0.37636 1.29424,-0.43106 1.88988,-0.75595 5.40222,-2.94667 0.51233,-0.38425 3.02381,-2.26786 0.39428,-0.29571 1.63916,-0.50523 1.88988,-0.75595 0.19921,-0.19922 0.17877,-0.55674 0.37798,-0.75596 0.66963,-0.66962 1.96226,-0.82833 2.64583,-1.5119 0.0891,-0.0891 -0.25198,0 -0.37797,0 -0.58992,0 -1.29774,-0.25955 -1.88988,-0.37798 -2.42511,-0.48502 -5.06967,-0.54846 -7.55953,-0.75595 -4.35403,-0.36283 -9.03754,0.66993 -13.22916,-0.37798 -0.91854,-0.22963 -2.10513,0.15312 -3.02381,0 -0.35574,-0.0593 -2.18559,-0.83822 -2.64584,-0.37797 -0.46654,0.46655 -0.96577,1.72172 -1.5119,2.26786 -0.19921,0.19921 -0.50397,0.25198 -0.75595,0.37797 -0.37798,0.37798 -0.80001,0.71652 -1.13393,1.13393 -0.17599,0.21999 -0.17877,0.55674 -0.37798,0.75595 -0.46037,0.46037 -0.84448,0.17705 -1.13393,0.75595 -0.42219,0.84438 -0.44804,1.0388 -1.5119,1.88989 -0.53906,0.43124 -2.28668,1.72912 -2.64583,2.26785 -0.31608,0.47411 -0.55783,1.22385 -1.13393,1.51191 -0.11269,0.0563 -0.28889,-0.0891 -0.37798,0 -0.0891,0.0891 0.0891,0.28888 0,0.37797 -0.64643,0.64644 -1.40806,-1.75142 -1.5119,-1.88988 -1.40272,-1.87028 -4.1631,-9.45047 -6.04762,-9.82738 -1.52708,-0.30541 -3.81315,0 -5.29167,0 -5.41766,0 -10.83532,0 -16.25298,0 z"
       style="fill:#ffffff;stroke:#000000;stroke-width:0.264583px;stroke-linecap:butt;stroke-linejoin:miter;stroke-opacity:1" />
    <path
       id="path20"
       d="m 61.232142,131.15774 c 0.542284,-2.21979 2.361673,-2.92728 3.023809,-4.91369 0.344966,-1.0349 0.868077,-1.7874 1.511906,-2.64584 0.854352,-1.13913 1.785924,-2.25524 2.645833,-3.40178 0.196808,-0.26242 0.575485,-1.33144 0.755952,-1.51191 0.311266,-0.31126 2.387721,-0.13825 2.645833,0.37798 0.400899,0.80179 0,8.4912 0,9.82738 0,0.26552 0.187425,1.70245 0,1.88988 -0.260501,0.2605 -7.537558,0.37798 -9.071427,0.37798"
       style="fill:#000000;stroke:#000000;stroke-width:0.264583px;stroke-linecap:butt;stroke-linejoin:miter;stroke-opacity:1" />
    <path
       id="path22"
       d="m 130.77976,53.294642 c 1.61093,-2.549888 3.04387,-5.321753 4.53571,-7.559524 0.28816,-0.432232 0.0898,-1.079672 0.37798,-1.511904 0.15627,-0.234412 0.59968,-0.143565 0.75595,-0.377975 0.13978,-0.209664 -0.0797,-0.516901 0,-0.755955 0.20796,-0.623861 1.07891,-3.346759 1.51191,-3.77976 0.72808,-0.728078 4.12216,0.264901 4.91369,0.377976 0.62363,0.08909 1.44443,-0.44545 1.88988,0 0.29742,0.29742 -0.0342,7.456831 0.37798,8.693451 0.20613,0.618411 1.59135,5.517168 1.13392,5.669642 -1.8825,0.627502 -7.34702,-0.230354 -9.4494,-0.755951 -1.76622,-0.441555 -4.22289,0 -6.04762,0 z"
       style="fill:#000000;stroke:#000000;stroke-width:0.264583px;stroke-linecap:butt;stroke-linejoin:miter;stroke-opacity:1" />
  </g>
</svg>
