<?xml version="1.0" encoding="UTF-8" standalone="no"?>
<svg
   xmlns:dc="http://purl.org/dc/elements/1.1/"
   xmlns:cc="http://creativecommons.org/ns#"
   xmlns:rdf="http://www.w3.org/1999/02/22-rdf-syntax-ns#"
   xmlns:svg="http://www.w3.org/2000/svg"
   xmlns="http://www.w3.org/2000/svg"
   xmlns:sodipodi="http://sodipodi.sourceforge.net/DTD/sodipodi-0.dtd"
   xmlns:inkscape="http://www.inkscape.org/namespaces/inkscape"
   inkscape:version="1.0 (4035a4fb49, 2020-05-01)"
   sodipodi:docname="pax.svg"
   id="svg8"
   version="1.1"
   viewBox="0 0 210 297"
   height="297mm"
   width="210mm">
  <defs
     id="defs2" />
  <sodipodi:namedview
     inkscape:window-maximized="1"
     inkscape:window-y="-8"
     inkscape:window-x="1912"
     inkscape:window-height="1027"
     inkscape:window-width="1920"
     showgrid="false"
     inkscape:document-rotation="0"
     inkscape:current-layer="layer1"
     inkscape:document-units="mm"
     inkscape:cy="414.69656"
     inkscape:cx="442.51103"
     inkscape:zoom="0.7"
     inkscape:pageshadow="2"
     inkscape:pageopacity="0.0"
     borderopacity="1.0"
     bordercolor="#666666"
     pagecolor="#ffffff"
     id="base" />
  <metadata
     id="metadata5">
    <rdf:RDF>
      <cc:Work
         rdf:about="">
        <dc:format>image/svg+xml</dc:format>
        <dc:type
           rdf:resource="http://purl.org/dc/dcmitype/StillImage" />
        <dc:title></dc:title>
      </cc:Work>
    </rdf:RDF>
  </metadata>
  <g
     id="layer1"
     inkscape:groupmode="layer"
     inkscape:label="Layer 1">
    <rect
       y="24.946428"
       x="20.410715"
       height="174.62502"
       width="168.95535"
       id="rect28"
       style="fill:#000000;stroke-width:0.282938" />
    <text
       transform="scale(1.0293109,0.97152375)"
       id="text32"
       y="77.421951"
       x="36.28706"
       style="font-style:normal;font-weight:normal;font-size:65.8626px;line-height:1.25;font-family:sans-serif;fill:#ffffff;fill-opacity:1;stroke:none;stroke-width:1.64657"
       xml:space="preserve"><tspan
         sodipodi:role="line"
         style="fill:#ffffff;stroke-width:1.64657"
         y="77.421951"
         x="36.28706"
         id="tspan30">AXE</tspan></text>
    <text
       transform="scale(1.0480948,0.95411216)"
       id="text36"
       y="124.09161"
       x="22.063084"
       style="font-style:normal;font-weight:normal;font-size:60.327px;line-height:1.25;font-family:sans-serif;fill:#ffffff;fill-opacity:1;stroke:none;stroke-width:1.50818"
       xml:space="preserve"><tspan
         style="fill:#ffffff;stroke-width:1.50818"
         y="124.09161"
         x="22.063084"
         id="tspan34"
         sodipodi:role="line">CLUB</tspan></text>
    <path
       id="path38"
       d="m 55.562499,128.5119 c -1.129969,1.56822 -2.297938,3.09901 -3.023809,4.91369 -0.444595,1.11149 -1.1187,2.22218 -1.511906,3.40179 -0.07968,0.23905 0.178181,0.57777 0,0.75595 -0.08909,0.0891 -0.265284,-0.0563 -0.377975,0 -0.548961,0.27448 -0.431509,1.18746 -0.755952,1.51191 -0.08909,0.0891 -0.288888,-0.0891 -0.377976,0 -0.253368,0.25336 0.253365,0.50258 0,0.75595 -0.372642,0.37264 -1.811356,1.16953 -2.267857,1.5119 -0.390375,0.29278 -0.699686,0.91681 -1.13393,1.13393 -0.112689,0.0564 -0.377976,-0.12599 -0.377976,0 0,0.12599 0.503967,0 0.377976,0 -0.251984,0 -0.530569,-0.11269 -0.755952,0 -0.07369,0.0369 -0.295963,0.67394 -0.377976,0.75595 -0.02349,0.0235 -5.431898,0.67671 -5.669642,0.75596 -0.362879,0.12096 -0.686729,0.72134 -0.755952,0.75595 -0.225383,0.11269 -0.513665,-0.0692 -0.755954,0 -0.151032,0.0431 -4.239136,1.97128 -4.535713,2.26786 -0.32122,0.32121 -0.392535,0.86136 -0.755954,1.13392 -0.865391,0.64905 -0.626377,-0.63712 -1.133927,0.37798 -0.575839,1.15168 -1.275191,3.18989 -0.377976,4.53572 -0.253312,0.53321 0.709179,0.3312 0.755952,0.37797 0.178181,0.17818 -0.112692,0.53057 0,0.75595 0.159369,0.31874 0.643263,0.41788 0.755951,0.75596 0.07968,0.23905 -0.139774,0.54629 0,0.75595 0.156274,0.23441 0.586917,0.15259 0.755954,0.37797 0.239052,0.31874 0.146397,0.80972 0.377976,1.13393 0.571955,0.80074 1.194067,1.57205 1.889879,2.26786 0.08909,0.0891 0.273146,-0.0699 0.377979,0 1.066744,0.71117 1.876501,1.57947 3.023809,2.26786 2.512076,1.50724 5.396164,2.13112 7.9375,3.40178 0.921678,0.46084 3.220368,0.84666 4.157736,0.37798 0.318739,-0.15937 0.459444,-0.55828 0.755955,-0.75595 1.995516,-1.33035 3.401784,-2.56188 3.401784,-5.29167 0,-0.75752 -0.185224,-1.90493 0,-2.64583 0.272622,-1.09049 0.404199,-2.34653 0.755952,-3.40179 0.112691,-0.33807 0.643263,-0.41788 0.755952,-0.75595 0.327787,-0.98336 0.303326,-1.81523 1.13393,-2.64583 1.426472,-1.42648 1.946497,-3.02381 4.157736,-3.02381 0.377979,0 0.819436,-0.20967 1.13393,0 0.234411,0.15627 0.178766,0.55674 0.377976,0.75595 0.281726,0.28172 0.815192,0.13892 1.133928,0.37797 0.940972,0.70573 1.582478,1.96046 2.267857,2.64584 0.372806,0.3728 1.236448,0.48049 1.511906,0.75595 0.178178,0.17818 -0.178181,0.57777 0,0.75595 0.247793,0.2478 1.322538,0.18861 1.511903,0.37798 0.782048,0.78204 -1.19507,-0.0306 0.377979,0.75595 1.285263,0.64263 3.557121,1.28927 4.535712,2.26786 0.08909,0.0891 -0.08909,0.28888 0,0.37797 0.188989,0.18899 0.944941,-0.18898 1.13393,0 0.123471,0.12348 0.249462,0.67028 0.377976,0.75596 0.811784,0.54119 1.477719,0.49257 2.267857,0.75595 0.580613,0.19354 0.292876,0.82521 0.755952,1.13393 0.432231,0.28815 1.079672,0.0898 1.511906,0.37797 0.601046,0.4007 1.23462,1.29349 1.889879,1.51191 0.239054,0.0797 0.5169,-0.0797 0.755954,0 0.507109,0.16903 0.706297,0.8132 1.133928,1.13393 0.844227,0.63317 1.785908,0.86696 2.645833,1.5119 1.457306,1.09298 3.379383,1.34727 4.913691,2.26786 0.921469,0.55288 1.631256,1.38259 2.645833,1.88988 1.282099,0.64105 2.933353,0.77727 4.157737,1.51191 1.0363,0.62178 2.05125,1.53843 3.02381,2.26785 0.66053,0.4954 1.1276,0.37481 1.88988,0.75595 1.44747,0.72374 2.72327,1.9286 4.15774,2.64584 0.46463,0.23232 1.04727,0.14566 1.5119,0.37797 2.34717,1.17359 4.46293,2.98742 6.80358,4.15774 0.46463,0.23232 1.04726,0.14566 1.5119,0.37798 1.10268,0.55134 1.85839,1.42371 3.02381,1.88988 1.33627,0.53451 2.87639,0.87123 4.15774,1.5119 0.11512,0.0576 3.41244,2.01943 4.15774,2.26786 0.98564,0.32855 2.0474,0.4009 3.0238,0.75595 0.42693,0.15525 0.71639,0.57701 1.13393,0.75596 2.50094,1.07182 5.32254,1.86134 7.9375,2.64583 3.88105,1.16431 6.31642,1.78174 10.20536,2.26786 1.24485,0.1556 0.97045,0.70232 2.26786,0.37797 2.90491,-0.72622 4.29562,-3.2663 4.91369,-6.04762 0.98509,-4.4329 -4.23906,-7.24253 -7.18155,-9.4494 -1.08376,-0.81282 -0.45104,-0.89526 -1.88988,-1.51191 -0.47748,-0.20463 -1.03443,-0.17334 -1.51191,-0.37797 -2.64768,-1.13472 0.14218,-0.29267 -1.88988,-1.51191 -2.01886,-1.21131 -4.28115,-2.32956 -6.42559,-3.40178 -1.51191,-0.75595 -3.07562,-1.41613 -4.53572,-2.26786 -0.54414,-0.31742 -0.93623,-0.87808 -1.5119,-1.13393 -1.17413,-0.52183 -2.5767,-0.3048 -3.77976,-0.75595 -0.42535,-0.15951 -0.70297,-0.6123 -1.13393,-0.75595 -2.06335,-0.68779 -4.30845,-0.63578 -6.4256,-1.13393 -4.73902,-1.11507 -9.66423,-1.68128 -14.36309,-3.02381 -1.95814,-0.55947 -3.76537,-1.55376 -5.66964,-2.26786 -1.36986,-0.51369 -2.861405,-0.81387 -4.157742,-1.5119 -3.767698,-2.02876 -7.705794,-4.15467 -11.339285,-6.4256 -2.328085,-1.45505 -4.270264,-3.29719 -6.425597,-4.91369 -3.823297,-2.86747 1.365015,1.0458 -2.267854,-1.13393 -1.453142,-0.87188 -2.768764,-2.09782 -4.15774,-3.02381 -1.194715,-0.79647 -2.901862,-1.55021 -4.157739,-2.26785 -1.945354,-1.11164 -3.103327,-2.72536 -4.535712,-4.15774 -0.199213,-0.19921 -0.556742,-0.17877 -0.755954,-0.37798 -1.047055,-1.04705 -1.688981,-2.5119 -3.023809,-3.40178 -1.632861,-1.08858 -4.14654,-1.6953 -6.047619,-2.64584 z"
       style="fill:#ffffff;stroke:#000000;stroke-width:0.264583px;stroke-linecap:butt;stroke-linejoin:miter;stroke-opacity:1" />
    <path
       id="path40"
       d="M 170.46726,130.40178 142.11905,128.5119"
       style="fill:none;stroke:#000000;stroke-width:0.264583px;stroke-linecap:butt;stroke-linejoin:miter;stroke-opacity:1" />
    <path
       id="path42"
       d="m 41.199405,184.83036 c 1.637896,0.25198 3.256524,0.75595 4.913689,0.75595 3.119691,0 5.754668,-3.18792 8.315478,-4.53572 1.347171,-0.70903 2.810565,-1.18084 4.157736,-1.88988 3.512119,-1.84848 6.79971,-4.3822 10.205358,-6.42559 3.733308,-2.23999 7.22812,-4.81435 10.583333,-7.55953 1.379035,-1.1283 2.400726,-2.65146 3.779761,-3.77976 0.436091,-0.3568 1.053404,-0.42845 1.511906,-0.75595 1.429766,-1.02126 3.022779,-2.83362 4.157739,-4.15774 2.232938,-2.60509 4.383333,-5.51726 6.80357,-7.9375 2.431423,-2.43142 5.265775,-4.28821 7.937495,-6.42559 0.98608,-0.78886 1.88284,-2.07535 3.02381,-2.64584 1.05834,-0.52916 2.34346,-0.60476 3.40179,-1.13393 2.91471,-1.45735 5.56636,-2.02041 8.69345,-2.64583 2.16801,-0.4336 4.61003,0.27419 6.80357,0 4.18146,-0.52268 8.30041,-2.18219 12.47322,-2.64583 2.19726,-0.24414 4.24785,-0.03 6.42559,-0.75595 0.43096,-0.14366 0.71639,-0.57701 1.13393,-0.75596 2.25431,-0.96613 5.17037,-1.59123 7.55953,-1.88988 2.5133,-0.31416 5.04339,-0.0635 7.55952,-0.37797 1.98794,-0.2485 4.25675,-1.85688 6.42559,-1.13393 0.77286,0.25762 5.67495,3.62155 6.4256,4.15774 0.63902,0.45644 5.25394,4.08228 5.66964,4.91369 0.11214,0.22428 0.25092,5.28524 0.37798,6.04761 0.35371,2.1223 1.88988,2.52386 1.88988,4.91369 0,0.50397 0.35636,1.15555 0,1.51191 -0.26727,0.26727 -0.78651,-0.14889 -1.13393,0 -0.67525,0.28939 -1.202,0.87598 -1.88988,1.13393 -0.35391,0.13272 -0.7611,-0.0621 -1.13393,0 -1.58703,0.2645 -2.94008,1.24596 -4.53571,1.5119 -1.84149,0.30692 -11.1851,0.26608 -12.47322,-0.37797 -3.29555,-1.64778 -5.18889,-5.24028 -8.31547,-6.80357 -0.5789,-0.28946 -0.29559,-0.67356 -0.75596,-1.13393 -0.66834,-0.66834 -7.22711,0.25578 -8.69345,0.37797 -1.83062,0.15255 -3.86777,-0.36037 -5.66964,0 -3.3039,0.66078 -6.26711,2.34102 -9.44941,3.40179 -0.66753,0.22251 -1.2903,-0.0217 -1.88988,0.37797 -1.81959,1.21307 -4.50838,4.68371 -5.66964,6.4256 -0.53528,0.80292 0.84609,-0.0601 -0.37798,0.75595 -4.28036,2.85358 -8.94507,5.2756 -12.85119,8.69345 -4.7112,4.12231 1.34982,-0.97183 -2.64583,3.02381 -1.1448,1.1448 -2.55025,1.99922 -3.77976,3.02381 -1.197719,0.9981 -1.961886,2.33986 -3.02381,3.40179 -1.233355,1.23336 -2.793685,1.67151 -4.157739,2.64583 -0.434972,0.3107 -0.666657,0.87434 -1.133927,1.13393 -3.568036,1.98224 -9.336349,2.48216 -13.229167,3.77976 -1.637807,0.54594 -3.282595,1.40056 -4.91369,1.88988 -3.948843,1.18466 -8.045477,1.90952 -12.095239,2.64584 -4.042958,0.73508 -11.721068,4.15583 -15.497024,2.26785 -0.30238,-0.15119 -0.831546,0.1512 -1.133928,0 -0.576104,-0.28805 -0.817856,-1.03779 -1.133927,-1.5119 -0.37937,-0.56905 -1.13393,-1.19719 -1.13393,-1.88988"
       style="fill:#ffffff;stroke:#000000;stroke-width:0.264583px;stroke-linecap:butt;stroke-linejoin:miter;stroke-opacity:1" />
  </g>
</svg>
