<?xml version="1.0" encoding="UTF-8" standalone="no"?>
<svg
   xmlns:dc="http://purl.org/dc/elements/1.1/"
   xmlns:cc="http://creativecommons.org/ns#"
   xmlns:rdf="http://www.w3.org/1999/02/22-rdf-syntax-ns#"
   xmlns:svg="http://www.w3.org/2000/svg"
   xmlns="http://www.w3.org/2000/svg"
   xmlns:sodipodi="http://sodipodi.sourceforge.net/DTD/sodipodi-0.dtd"
   xmlns:inkscape="http://www.inkscape.org/namespaces/inkscape"
   sodipodi:docname="rage.svg"
   inkscape:version="1.0 (4035a4fb49, 2020-05-01)"
   id="svg8"
   version="1.1"
   viewBox="0 0 210 297"
   height="297mm"
   width="210mm">
  <defs
     id="defs2" />
  <sodipodi:namedview
     inkscape:window-maximized="0"
     inkscape:window-y="20"
     inkscape:window-x="2119"
     inkscape:window-height="1041"
     inkscape:window-width="1375"
     showgrid="false"
     inkscape:document-rotation="0"
     inkscape:current-layer="layer1"
     inkscape:document-units="mm"
     inkscape:cy="444.26752"
     inkscape:cx="507.11946"
     inkscape:zoom="0.98994949"
     inkscape:pageshadow="2"
     inkscape:pageopacity="0.0"
     borderopacity="1.0"
     bordercolor="#666666"
     pagecolor="#ffffff"
     id="base" />
  <metadata
     id="metadata5">
    <rdf:RDF>
      <cc:Work
         rdf:about="">
        <dc:format>image/svg+xml</dc:format>
        <dc:type
           rdf:resource="http://purl.org/dc/dcmitype/StillImage" />
        <dc:title></dc:title>
      </cc:Work>
    </rdf:RDF>
  </metadata>
  <g
     id="layer1"
     inkscape:groupmode="layer"
     inkscape:label="Layer 1">
    <ellipse
       ry="81.903603"
       rx="89.588898"
       cy="115.39479"
       cx="98.965584"
       id="path10"
       style="fill:#000000;stroke-width:0.346075" />
    <path
       id="path14"
       d="m 40.892237,59.868373 c 2.59306,0.03216 5.220658,-0.154424 7.750815,0.267272 1.128147,0.188023 2.341653,-0.161838 3.474506,0 0.715706,0.102243 1.462304,0.437988 2.138156,0.534537 2.017869,0.288267 4.160845,0.305221 6.147197,0.80181 1.121383,0.280344 2.105837,0.754393 3.207237,1.069078 0.256984,0.07342 0.542517,-0.06482 0.801806,0 0.608526,0.15213 1.286248,0.509489 1.870887,0.801809 0.450628,0.225311 1.294805,0.225724 1.603619,0.534538 0.273775,0.273774 0.0029,0.405206 0.267269,0.801809 0.205843,0.308763 1.432599,0.994314 1.603615,1.336347 1.145871,2.291741 1.866726,6.153443 0.267272,8.552624 -0.06058,0.09087 -0.447233,0.179962 -0.53454,0.267272 -0.188987,0.188986 0.08452,0.548253 0,0.801806 -0.04995,0.149834 -1.591107,2.131901 -1.603616,2.138156 -1.737704,0.868852 -3.483991,2.05223 -5.34539,2.672697 -0.353299,0.117766 -0.728401,0.631467 -1.069078,0.801809 -0.177081,0.08854 -1.824654,0.488302 -1.870888,0.534538 -0.621376,0.621376 0.717447,3.21433 1.069078,3.741774 0.196742,0.295111 2.370267,1.986941 2.672694,2.138156 1.063062,0.53153 1.75228,2.069103 2.405428,2.939965 0.174895,0.233194 1.296297,0.988979 1.336347,1.069078 0.07968,0.159367 -0.07969,0.375169 0,0.534538 0.03984,0.07968 0.193143,-0.04942 0.267268,0 1.441847,0.961231 -0.184078,0.08319 0.80181,1.069078 0.314978,0.314981 0.754097,0.486828 1.069078,0.801809 0.978416,0.978416 1.584285,2.112381 2.405425,3.207235 0.7508,1.001066 1.630344,1.487797 2.138156,2.672693 0.304337,0.710119 3.101536,4.649279 2.939965,4.810849 -0.06375,0.0638 -2.604669,0.49263 -2.939965,0.53455 -1.709597,0.21369 -3.727109,0.68903 -5.34539,1.33634 -0.116981,0.0468 -0.14504,0.23671 -0.267269,0.26727 -1.148591,0.28715 -2.125554,0.26097 -3.207234,0.80181 -1.260187,0.63009 -2.821742,-3.23806 -3.207235,-4.00904 -0.313261,-0.62653 -0.173998,-1.26999 -0.53454,-1.87089 -0.439666,-0.73278 -1.087837,-1.45045 -1.603616,-2.138157 -0.594143,-0.792189 -0.906163,-1.812328 -1.336349,-2.672694 -0.05634,-0.112692 -0.178179,-0.178181 -0.267269,-0.267272 -0.178178,-0.267269 -0.408003,-0.50656 -0.534538,-0.801806 -0.144698,-0.337627 -0.102997,-0.740532 -0.267271,-1.069078 -0.112689,-0.225383 -0.35636,-0.35636 -0.534538,-0.534541 -0.267269,-0.356359 -0.602599,-0.670655 -0.801809,-1.069078 -0.07968,-0.159369 0.09884,-0.386284 0,-0.534537 -0.110503,-0.165754 -0.393676,-0.126408 -0.534538,-0.267272 -0.111998,-0.111995 -0.18628,-0.639826 -0.267271,-0.801807 -0.215088,-0.430178 -0.924677,-0.903149 -1.069078,-1.336349 -0.05635,-0.169034 0.05634,-0.365503 0,-0.534538 -0.09763,-0.292899 -0.62851,-0.541861 -0.801807,-0.801809 -0.588841,-0.134596 -0.14128,-0.549825 -0.267272,-0.801809 -0.266573,-0.533149 -0.802502,-1.070467 -1.069078,-1.603616 -0.130839,-0.261681 -0.393414,-0.519562 -0.534537,-0.801809 -0.03984,-0.07968 0.08909,-0.267269 0,-0.267269 -0.08909,0 0.08909,0.267269 0,0.267269 -0.125992,0 -0.178181,-0.178181 -0.267269,-0.267269 -0.267272,0 -0.538176,-0.04394 -0.801809,0 -0.202703,0.03378 -3.150349,1.012193 -3.207234,1.069078 -0.280446,0.280443 0,1.989818 0,2.405425 0,5.115602 0.267268,10.084525 0.267268,15.234368 0,0.0919 0.0164,3.99264 0,4.00904 -0.206078,0.20608 -6.646674,0.30233 -6.949008,0 -0.125992,-0.12599 0.05635,-0.36551 0,-0.53454 -0.125992,-0.37798 -0.456401,-0.67839 -0.534538,-1.06908 -0.167878,-0.83939 0.08499,-1.82274 0,-2.67269 -0.310391,-3.1039 0.04241,-6.257584 -0.267269,-9.354439 -0.21663,-2.166281 -0.701651,-5.311637 -0.267271,-7.483546 0.123388,-0.616932 0.405767,-1.227021 0.53454,-1.870887 0.239726,-1.198634 0.570238,-1.942286 1.069078,-2.939963 0.08909,-0.178181 0.534538,-0.06806 0.534538,-0.267272 0,-0.08909 -0.35636,0 -0.267269,0 1.907294,0 7.099353,0.116925 8.018087,-0.801806 0.142417,-0.142417 0.03651,-2.314147 0,-2.405428 -0.140378,-0.35094 -0.710137,-0.435118 -0.80181,-0.801806 -0.09221,-0.368843 -0.04472,-1.269799 -0.267268,-1.603619 -0.110504,-0.165753 -0.393677,-0.126407 -0.534541,-0.267269 -0.475607,-0.475609 -0.20321,-1.29106 -0.534537,-1.870887 -0.221007,-0.386757 -0.554718,-0.698442 -0.80181,-1.069078 -0.365029,-0.547544 -0.337888,-1.406967 -0.801809,-1.870887 -0.631047,-0.631047 0.140557,1.490752 -0.534538,-0.534538 -0.136014,-0.408038 -0.135569,-0.941244 -0.267271,-1.336349 -0.142219,-0.426662 -0.66171,-0.916051 -0.801807,-1.336347 -0.05635,-0.169037 0.07968,-0.375171 0,-0.534538 -0.03984,-0.07968 -0.204274,0.063 -0.267271,0 -0.125992,-0.125992 0.05635,-0.365503 0,-0.53454 0.133075,-0.47348 -0.41524,-0.503566 -0.534538,-0.80181 -0.12832,-0.320799 -0.283922,-2.154808 -0.53454,-2.405424 -0.063,-0.063 -0.204272,0.063 -0.267269,0 -0.133633,-0.133636 0.133636,-0.668174 0,-0.80181 -0.063,-0.06299 -0.204274,0.063 -0.267269,0 -0.02916,-0.02916 -0.134615,-0.803769 -0.267269,-1.069078 -0.08069,-0.161369 0.123547,-0.678259 0,-0.801806 -0.493485,-0.493488 -0.0727,0.121862 -0.801809,-1.33635 z"
       style="fill:#ffffff;stroke:#000000;stroke-width:0.264583px;stroke-linecap:butt;stroke-linejoin:miter;stroke-opacity:1" />
    <path
       id="path16"
       d="m 50.781208,66.817382 c 0.543851,1.109289 1.874645,2.412942 2.405428,3.474503 0.364337,0.728678 1.22873,1.388382 1.603616,2.138156 0.08099,0.161983 0.155273,0.689811 0.267269,0.801809 0.198101,0.198102 0.470074,0.202803 0.801809,0.534538 0.08909,0.08909 0.178181,0.712721 0.267269,0.801809 0.133635,0.133636 0.400904,0.133636 0.53454,0.267272 0.304774,0.304773 0.456819,1.43112 0.801809,1.603615 0.239482,0.11974 1.61789,-0.675309 1.870885,-0.801809 1.112313,-0.556154 -0.285718,0.01844 0.267271,-0.534538 0.150763,-0.150764 0.85548,0.0712 1.069078,0 0.268653,-0.08955 3.094485,-1.490868 3.207234,-1.603618 0.178062,-0.178062 0.110715,-2.340546 0,-2.672694 -0.35856,-1.075685 -2.61617,-3.098025 -3.474505,-3.741774 -1.640713,-1.230535 0.511524,0.523031 -1.069078,-0.267269 -0.22538,-0.112691 -0.309155,-0.421849 -0.534538,-0.534541 -0.218956,-0.109476 -7.203892,-0.546922 -7.216277,-0.534537 -0.314982,0.314978 -0.534538,0.712718 -0.80181,1.069078 z"
       style="fill:#000000;stroke:#000000;stroke-width:0.264583px;stroke-linecap:butt;stroke-linejoin:miter;stroke-opacity:1" />
    <path
       id="path18"
       d="m 78.0427,104.23511 c -0.305395,-1.30476 0.691915,-2.07573 1.069078,-3.20723 0.508016,-1.524045 0.02066,-1.035122 0.534541,-2.405425 0.139895,-0.373055 0.425084,-0.685986 0.534537,-1.069078 0.205166,-0.71808 0.117893,-1.658536 0.267272,-2.405425 0.340296,-1.701493 0.728213,-3.373798 1.069078,-5.078122 0.226975,-1.134882 0.782246,-2.327182 1.069078,-3.474505 0.506912,-2.027653 1.087218,-4.081603 1.603616,-6.147197 0.273386,-1.093542 0.410879,-2.432026 0.801809,-3.474506 0.112786,-0.300765 0.421751,-0.501041 0.534538,-0.801806 0.159506,-0.42535 0.123618,-0.905391 0.267271,-1.33635 0.571108,-1.713328 1.308899,-3.392159 1.870885,-5.078121 0.469744,-1.409229 0.56334,-2.845499 0.801809,-4.276313 0.0602,-0.361172 -0.278778,-2.126646 0,-2.405424 0.301614,-0.301612 2.303256,0.06157 2.672696,0 1.570771,-0.261795 4.1578,-0.72743 5.612659,0 1.109967,0.554982 0.949862,1.74513 1.336347,2.672696 1.296138,3.110725 2.335866,6.354051 3.207236,9.621702 0.11705,0.438931 0.10776,0.911001 0.26727,1.336347 0.5541,1.477606 0.55286,0.109956 0.80181,1.603619 0.39454,2.367253 0.97585,4.862166 1.60361,7.216275 1.54263,5.784849 3.53251,11.422054 4.27632,17.372523 0.10648,0.85183 0.97783,2.32065 0.53454,3.20723 -0.52815,1.0563 -3.46798,0.53454 -4.27631,0.53454 -1.15817,0 -2.31634,0 -3.47451,0 -0.35636,0 -1.069078,-0.35636 -1.069078,0 0,0.0891 0.307108,0.0797 0.267268,0 -1.54559,-3.09118 0.2661,1.60069 -0.801806,-1.06908 -0.511776,-1.27943 -1.043509,-2.424 -1.33635,-3.74177 -0.401179,-1.80532 -0.766955,-3.532668 -1.069078,-5.345391 0.09283,-0.543799 -0.440449,-0.865902 -0.534537,-1.336347 -0.165632,-0.828159 -0.03677,-1.865961 -0.267269,-2.672697 -0.806609,-2.823128 -0.237734,-0.366683 -0.801809,-1.870887 -0.02961,-0.07896 -0.532419,-2.670572 -0.80181,-2.939965 -0.37715,-0.377151 -2.916483,0 -3.474503,0 -0.178181,0 -0.375171,-0.07968 -0.53454,0 -0.0818,0.0409 -0.267269,2.645698 -0.267269,2.939965 0,1.251336 -0.312878,3.292067 0,4.543584 0.03056,0.122229 0.227428,0.14774 0.267269,0.267269 0.462518,1.387551 -0.07806,6.759799 -1.069078,7.750819 -0.357778,0.35778 -2.753453,0 -3.207234,0 -1.2837,0 -3.057769,-0.30464 -4.276312,0 -0.404424,0.1011 -0.931924,0.43343 -1.336347,0.53454 -1.122926,0.28073 -1.455632,-0.074 -2.672697,0.53453 z"
       style="fill:#ffffff;stroke:#000000;stroke-width:0.264583px;stroke-linecap:butt;stroke-linejoin:miter;stroke-opacity:1" />
    <path
       id="path20"
       d="m 133.90203,64.411954 c -3.21673,0.05008 -6.46507,-0.254616 -9.6217,0.534541 -2.7612,0.690298 -4.84577,1.884854 -7.48355,2.939965 -0.42178,0.168712 -0.94193,0.04189 -1.33635,0.267269 -0.27889,0.159369 -0.3074,0.574672 -0.53454,0.801809 -0.19921,0.19921 -0.60259,0.06806 -0.8018,0.267269 -0.14087,0.140864 -0.12641,0.393676 -0.26727,0.534538 -1.36585,1.36585 0.37277,-1.120654 -1.06908,0.801809 -2.42598,3.234637 -1.52554,9.711748 -1.06908,13.363477 0.21084,1.686737 -0.0114,3.40597 0.26727,5.078121 0.19555,1.173284 0.85477,2.295803 1.06908,3.474503 0.0637,0.350613 -0.0979,0.72643 0,1.069078 0.0882,0.308859 0.43296,0.497076 0.53454,0.801809 0.25602,0.768078 0.36252,2.347156 0.53454,3.207235 0.0874,0.436798 -0.14087,0.913757 0,1.336347 0.0797,0.239053 0.45485,0.295486 0.53454,0.53454 0.11269,0.338071 -0.1127,0.731006 0,1.069076 0.0488,0.14632 0.45962,0.99416 0.53454,1.06908 0.14086,0.14086 0.41501,0.1079 0.53453,0.26727 0.16904,0.22538 0.14128,0.54982 0.26727,0.80181 0.1872,0.37439 0.77062,0.77062 1.06908,1.06908 0.14086,0.14086 0.44545,0.0891 0.53454,0.26726 0.37819,0.75637 -0.58219,0.42957 0.53454,0.80181 1.05311,0.35104 2.62748,0 3.74177,0 3.31105,0 6.68949,0.12782 9.35444,-1.87088 0.27879,-0.2091 1.15906,-0.35725 1.33634,-0.53454 0.14087,-0.14087 0.10791,-0.41502 0.26727,-0.53454 0.84827,-0.63621 1.2382,-0.40367 2.13816,-1.60362 0.65655,-0.0953 0.111,-0.567396 0.26727,-0.801806 0.65792,-0.986875 1.47079,-1.739678 1.87089,-2.939965 0.41129,-1.233898 0.57412,-4.385247 0.26727,-5.61266 -0.0324,-0.129722 -0.52987,-0.539207 -0.26727,-0.801809 0.45322,-0.453218 2.35956,0.290201 2.93996,0 0.0551,-0.02755 -0.0165,-5.220025 -0.26727,-5.34539 -0.65723,-0.328618 -4.5519,0 -5.34539,0 -0.62713,0 -9.77412,-0.114853 -9.88897,0 -0.23348,0.233476 0.36779,3.776072 0.53454,4.276312 0.10525,0.315765 0.74035,1.171983 1.06908,1.336347 0.8903,0.445151 5.57921,-0.03344 5.61265,0 0.40629,0.406286 -0.0588,2.255787 -0.26726,2.672697 -0.17818,0.356359 0.17818,0.979987 0,1.336346 -0.41119,0.822373 -0.9888,1.256062 -1.60362,1.870888 -1.44202,1.442021 -1.30865,1.790565 -3.74177,2.138156 -1.50297,0.214709 -1.42976,0.698756 -2.93997,0.267269 -1.49593,-0.427408 -1.9716,-1.169789 -2.93996,-2.138156 -0.14087,-0.140865 -0.35636,-0.178181 -0.53454,-0.267269 -0.26727,-0.267272 -0.55583,-0.514829 -0.80181,-0.801809 -2.87739,-3.356954 -2.40543,-7.345937 -2.40543,-11.49259 0,-1.818217 0.0944,-3.584811 0.53454,-5.34539 0.0786,-0.314495 -0.14193,-0.785218 0,-1.069078 0.16678,-0.333555 1.01249,-1.377273 1.06908,-1.603619 0.0382,-0.15268 0.43475,-2.038368 0.53454,-2.138156 0.063,-0.063 0.18758,0.03984 0.26727,0 0.68294,-0.341471 1.20294,-1.202851 1.87088,-1.603616 1.83027,-1.098161 3.75406,-2.141228 5.87994,-2.672696 0.87776,-0.219443 1.89024,-0.273722 2.67269,-0.534538 0.58269,-0.19423 3.50139,0.240379 3.74177,0 0.90552,-0.905523 0.80181,-3.330292 0.80181,-4.543584 z"
       style="fill:#ffffff;stroke:#000000;stroke-width:0.264583px;stroke-linecap:butt;stroke-linejoin:miter;stroke-opacity:1" />
    <path
       id="path22"
       d="m 165.17257,64.679226 c -0.62363,0.08909 -1.24726,0.178178 -1.87089,0.267269 -0.44545,0 -0.89362,-0.04919 -1.33635,0 -2.18562,0.242845 -4.21367,0.244533 -6.41447,0 -0.45149,-0.05016 -0.88664,-0.203026 -1.33634,-0.267269 -0.15071,-0.02154 -6.44985,-0.49916 -6.68174,-0.267272 -0.063,0.063 0.063,0.204275 0,0.267272 -0.126,0.125992 -0.40855,-0.125992 -0.53454,0 -0.16272,0.162711 0.4719,1.950246 0.80181,2.939963 1.42269,4.268078 1.06908,8.655076 1.06908,13.096208 0,1.247052 0.29855,3.082094 0,4.276312 -0.14495,0.579789 -0.61282,1.036653 -0.80181,1.603616 -0.17137,0.514104 -0.13584,1.077886 -0.26727,1.603618 -0.50604,2.02416 -0.98299,3.225194 -1.33635,5.34539 -0.10178,0.610709 -0.29413,1.122807 -0.53454,1.603619 -0.15912,0.318238 0.0503,0.984125 0,1.336347 -0.13736,0.961495 -0.53454,1.99948 -0.53454,2.939965 0,1.092126 -0.65417,2.138156 -0.53454,2.138156 0.0891,0 -0.0797,-0.22743 0,-0.26727 0.6571,-0.32855 1.4412,-0.30222 2.13816,-0.53454 4.54063,-1.513543 13.42362,-0.801808 18.70887,-0.801808 0.94514,0 2.79158,-0.316728 3.74177,0 0.26099,0.087 1.82935,0.884878 1.87088,0.801808 0.13364,-0.26727 -0.0668,-0.53454 0,-0.801808 0.51765,-2.0706 0.53454,-4.261512 0.53454,-6.414469 0,-0.57962 0.1494,-5.195998 0,-5.34539 -0.25502,-0.255024 -2.08731,0.510069 -2.40542,0.53454 -0.79945,0.06149 -1.60518,-0.05002 -2.40543,0 -2.42939,0.151837 -4.80561,0.801807 -7.21628,0.801807 -0.18221,0 -2.10227,0.107632 -2.13815,0 -0.33718,-1.011534 -0.34117,-2.774924 -0.53454,-3.741772 -0.13632,-0.681585 -0.6261,-2.848409 -0.53454,-2.939965 0.44166,-0.441656 4.51473,0.415329 5.34539,0 0.0797,-0.03984 -0.0398,-0.187585 0,-0.267269 0.0564,-0.112691 0.17818,-0.178181 0.26727,-0.267272 0.17818,-0.356359 0.37759,-0.702868 0.53454,-1.069078 0.88341,-2.061286 -0.40092,-2.325248 -2.13816,-2.672693 -1.02203,-0.204407 -2.40654,-0.53426 -3.4745,-0.267269 -0.12223,0.03056 -0.14128,0.267269 -0.26727,0.267269 -0.0891,0 0,-0.178181 0,-0.267269 0,-0.534541 0,-1.069078 0,-1.603619 0,-0.751945 -0.11483,-4.161477 0,-4.276312 0.29402,-0.294021 2.79301,0 3.20723,0 1.49502,0 4.80778,-0.264197 5.87993,-1.336347 0.063,-0.063 -0.063,-0.204274 0,-0.267271 0.063,-0.063 0.22743,0.07968 0.26727,0 0.36956,-0.739114 0,-2.680888 0,-3.474503 0,-1.329161 -0.22944,-1.553178 -1.06907,-2.672694 z"
       style="fill:#ffffff;stroke:#000000;stroke-width:0.264583px;stroke-linecap:butt;stroke-linejoin:miter;stroke-opacity:1" />
    <path
       id="path24"
       d="m 58.264755,120.27129 c -1.062606,5.3582 -3.445124,11.37403 -8.018084,14.69982 -1.129607,0.82153 -2.58509,1.36703 -3.741775,2.13816 -0.240477,0.16032 -0.776485,-0.0731 -1.069078,0 -1.598292,0.39957 -3.090365,-0.23374 -3.741771,1.06908 -1.202638,2.40526 3.588186,5.70739 5.078121,6.949 1.046234,0.87186 1.977702,1.97771 2.939963,2.93997 2.278075,2.27807 4.855993,4.44193 8.018086,5.34539 1.827443,0.52212 4.853654,1.07975 6.681737,0.26727 1.303682,-0.57942 3.30838,-2.74785 4.009044,-4.00905 0.232995,-0.41939 0.29651,-0.91979 0.53454,-1.33634 0.564306,-0.98754 1.337781,-1.87376 1.870885,-2.93997 1.048877,-2.09775 -0.191424,0.19264 0.267271,-1.33635 0.567616,-1.89206 1.069078,-3.38814 1.069078,-5.34539 0,-0.94495 0.537425,-6.68173 1.069078,-6.68173 0.705816,0 0.928309,1.58935 1.069078,1.87088 0.112692,0.22538 0.35636,0.35636 0.534538,0.53454 0.178181,0.26727 0.390888,0.5145 0.53454,0.80181 0.383011,0.76602 1.131838,1.58739 1.336347,2.40542 0.04322,0.17286 -0.09883,0.38629 0,0.53455 0.110504,0.16575 0.393677,0.1264 0.534541,0.26726 0.317045,0.31705 0.470442,1.42907 0.801806,1.87089 0.590913,0.78788 1.212176,1.66437 1.870887,2.40543 1.995853,2.24533 4.313291,4.31328 6.414469,6.41446 1.030615,1.03062 1.982319,2.38005 2.939965,3.47451 1.484114,1.69613 3.248575,3.24857 4.810853,4.81085 0.867523,0.86753 1.537898,2.07244 2.405425,2.93997 0.227134,0.22713 0.574672,0.3074 0.801809,0.53453 1.800394,1.8004 3.335752,3.73768 5.345392,5.34539 0.64501,0.51601 0.9977,1.36596 1.60361,1.87089 0.2711,0.22591 1.7258,0.92398 2.13816,1.33635 0.063,0.063 0,0.17818 0,0.26727 0.0891,0.0891 0.16244,0.19738 0.26727,0.26727 2.03854,1.35902 5.43229,4.41568 7.75082,5.07812 3.89341,1.1124 7.72337,1.33635 11.75986,1.33635 1.55551,0 4.25548,0.18512 5.61265,-0.26727 0.70512,-0.23504 0.81501,-0.652 1.33635,-1.06908 0.37124,-0.29699 1.65591,-1.01389 1.87089,-1.33635 0.0821,-0.12317 0.56498,-2.9333 0.53454,-3.20723 -0.0696,-0.62611 -0.0681,-1.27326 -0.26727,-1.87089 -0.55321,-1.65964 -3.20498,-2.97782 -4.81085,-3.20723 -0.52917,-0.0756 -1.07946,0.10483 -1.60362,0 -0.8035,-0.16071 -1.59677,-0.41902 -2.40543,-0.53454 -0.35277,-0.0504 -0.72335,0.0864 -1.06907,0 -0.38653,-0.0966 -0.68256,-0.43791 -1.06908,-0.53454 -0.34572,-0.0864 -0.71757,0.0586 -1.06908,0 -1.09494,-0.18249 -1.93195,-0.56507 -2.93996,-1.06908 -4.98255,-2.49127 -9.63543,-5.62835 -13.36348,-9.88897 -1.38179,-1.57919 -2.49356,-3.41384 -3.74177,-5.07812 -0.30238,-0.40318 -0.80979,-0.63693 -1.06908,-1.06908 -0.14495,-0.24158 -0.0982,-0.57643 -0.26727,-0.80181 -0.11953,-0.15937 -0.41009,-0.11171 -0.53454,-0.26727 -0.54436,-0.68044 -0.80482,-1.69672 -1.336348,-2.40543 -0.905706,-1.2076 -1.994922,-2.2932 -2.939966,-3.4745 -0.833477,-1.04185 -0.183986,-0.11039 -1.336347,-0.80181 -0.629025,-0.37742 -0.992523,-1.19622 -1.603615,-1.60362 -1.276321,-0.85088 -2.702378,-1.58876 -4.009044,-2.40542 -0.973952,-0.60872 -1.743014,-1.51837 -2.672696,-2.13816 -0.497261,-0.3315 -1.181026,-0.37922 -1.603616,-0.80181 -0.140864,-0.14086 -0.107902,-0.41501 -0.267271,-0.53453 -0.22538,-0.16904 -0.576427,-0.0982 -0.801807,-0.26728 -0.356359,-0.26726 -0.486828,-0.75409 -0.801809,-1.06907 -0.757322,-0.75732 -1.668124,-1.40086 -2.405425,-2.13816 -4.281757,-4.28176 -6.346087,-8.77886 -11.759861,-12.02713 -0.684866,-0.41092 -1.333045,-1.13507 -2.138156,-1.33634 -0.576998,-0.14426 -1.29943,-0.0768 -1.870885,-0.26728 -0.74281,-0.2476 -1.592019,-0.42995 -2.405428,-0.26726 -1.96774,0.39354 -2.686719,2.1662 -3.474503,3.74177 -0.07968,0.15937 0.125992,0.40855 0,0.53454 -0.133635,0.13363 -0.400904,0.13363 -0.534537,0.26727 -0.125995,0.12599 0.142541,0.42763 0,0.53454 -0.318739,0.23905 -0.712722,0.35636 -1.069081,0.53454 z"
       style="fill:#ffffff;stroke:#000000;stroke-width:0.264583px;stroke-linecap:butt;stroke-linejoin:miter;stroke-opacity:1" />
    <path
       style="fill:#ffffff;stroke:#000000;stroke-width:0.264583px;stroke-linecap:butt;stroke-linejoin:miter;stroke-opacity:1"
       d="m 134.47596,117.74456 c 1.0626,5.3582 3.44512,11.37403 8.01808,14.69982 1.12961,0.82153 2.58509,1.36703 3.74177,2.13816 0.24048,0.16032 0.77649,-0.0731 1.06908,0 1.5983,0.39957 3.09037,-0.23374 3.74177,1.06908 1.20264,2.40526 -3.58818,5.70739 -5.07812,6.949 -1.04623,0.87186 -1.9777,1.97771 -2.93996,2.93997 -2.27808,2.27807 -4.85599,4.44193 -8.01809,5.34539 -1.82744,0.52212 -4.85365,1.07975 -6.68173,0.26727 -1.30369,-0.57942 -3.30838,-2.74785 -4.00905,-4.00905 -0.23299,-0.41939 -0.29651,-0.91979 -0.53454,-1.33634 -0.5643,-0.98754 -1.33778,-1.87376 -1.87088,-2.93997 -1.04888,-2.09775 0.19142,0.19264 -0.26727,-1.33635 -0.56762,-1.89206 -1.06908,-3.38814 -1.06908,-5.34539 0,-0.94495 -0.53743,-6.68173 -1.06908,-6.68173 -0.70581,0 -0.92831,1.58935 -1.06908,1.87088 -0.11269,0.22538 -0.35636,0.35636 -0.53453,0.53454 -0.17819,0.26727 -0.39089,0.5145 -0.53455,0.80181 -0.38301,0.76602 -1.13183,1.58739 -1.33634,2.40542 -0.0432,0.17286 0.0988,0.38629 0,0.53455 -0.11051,0.16575 -0.39368,0.1264 -0.53454,0.26726 -0.31705,0.31705 -0.47044,1.42907 -0.80181,1.87089 -0.59091,0.78788 -1.21217,1.66437 -1.87089,2.40543 -1.99585,2.24533 -4.31329,4.31328 -6.41446,6.41446 -1.03062,1.03062 -1.98232,2.38005 -2.93997,3.47451 -1.48411,1.69613 -3.24857,3.24857 -4.810852,4.81085 -0.867524,0.86753 -1.537898,2.07244 -2.405428,2.93997 -0.22713,0.22713 -0.57467,0.3074 -0.80181,0.53453 -1.80039,1.8004 -3.33575,3.73768 -5.34539,5.34539 -0.64501,0.51601 -0.9977,1.36596 -1.60361,1.87089 -0.2711,0.22591 -1.7258,0.92398 -2.13816,1.33635 -0.063,0.063 0,0.17818 0,0.26727 -0.0891,0.0891 -0.16244,0.19738 -0.26727,0.26727 -2.03854,1.35902 -5.43229,4.41568 -7.75082,5.07812 -3.89341,1.1124 -7.72337,1.33635 -11.75986,1.33635 -1.55551,0 -4.25548,0.18512 -5.61265,-0.26727 -0.70512,-0.23504 -0.81501,-0.652 -1.33635,-1.06908 -0.37124,-0.29699 -1.65591,-1.01389 -1.87089,-1.33635 -0.0821,-0.12317 -0.56498,-2.9333 -0.53454,-3.20723 0.0696,-0.62611 0.0681,-1.27326 0.26727,-1.87089 0.55321,-1.65964 3.20498,-2.97782 4.81085,-3.20723 0.52917,-0.0756 1.07946,0.10483 1.60362,0 0.8035,-0.16071 1.59677,-0.41902 2.40543,-0.53454 0.35277,-0.0504 0.72335,0.0864 1.06907,0 0.38653,-0.0966 0.68256,-0.43791 1.06908,-0.53454 0.34572,-0.0864 0.71757,0.0586 1.06908,0 1.09494,-0.18249 1.93195,-0.56507 2.93996,-1.06908 4.98255,-2.49127 9.63543,-5.62835 13.36348,-9.88897 1.38179,-1.57919 2.49356,-3.41384 3.74177,-5.07812 0.30238,-0.40318 0.80979,-0.63693 1.06908,-1.06908 0.14495,-0.24158 0.0982,-0.57643 0.26727,-0.80181 0.11953,-0.15937 0.41009,-0.11171 0.53454,-0.26727 0.54436,-0.68044 0.80482,-1.69672 1.33635,-2.40543 0.90571,-1.2076 1.99492,-2.2932 2.93997,-3.4745 0.83347,-1.04185 0.18398,-0.11039 1.33634,-0.80181 0.62903,-0.37742 0.992526,-1.19622 1.603618,-1.60362 1.276321,-0.85088 2.702382,-1.58876 4.009042,-2.40542 0.97395,-0.60872 1.74302,-1.51837 2.6727,-2.13816 0.49726,-0.3315 1.18102,-0.37922 1.60361,-0.80181 0.14087,-0.14086 0.10791,-0.41501 0.26728,-0.53453 0.22538,-0.16904 0.57642,-0.0982 0.8018,-0.26728 0.35636,-0.26726 0.48683,-0.75409 0.80181,-1.06907 0.75732,-0.75732 1.66813,-1.40086 2.40543,-2.13816 4.28175,-4.28176 6.34608,-8.77886 11.75986,-12.02713 0.68486,-0.41092 1.33304,-1.13507 2.13815,-1.33634 0.577,-0.14426 1.29943,-0.0768 1.87089,-0.26728 0.74281,-0.2476 1.59202,-0.42995 2.40542,-0.26726 1.96774,0.39354 2.68672,2.1662 3.47451,3.74177 0.0797,0.15937 -0.12599,0.40855 0,0.53454 0.13363,0.13363 0.4009,0.13363 0.53453,0.26727 0.126,0.12599 -0.14254,0.42763 0,0.53454 0.31874,0.23905 0.71273,0.35636 1.06909,0.53454 z"
       id="path24-8" />
    <path
       id="path41"
       d="m 90.337099,79.37905 c -0.192646,-1.241732 0.668528,-2.007722 0.801809,-3.207234 0.154932,-1.3944 0.03623,-5.381623 1.069078,-6.414471 0.250854,-0.250854 1.957584,1.155776 2.138156,1.336349 0.392663,0.392663 0.944383,0.570294 1.069079,1.069078 0.193053,0.772211 0.543208,6.138529 0,6.681737 -0.857465,0.857465 -3.651811,0.534541 -5.078122,0.534541 z"
       style="fill:#000000;stroke:#000000;stroke-width:0.264583px;stroke-linecap:butt;stroke-linejoin:miter;stroke-opacity:1" />
  </g>
</svg>
